<?xml version="1.0" encoding="UTF-8" standalone="no"?>
<!DOCTYPE svg PUBLIC "-//W3C//DTD SVG 1.1//EN"
"http://www.w3.org/Graphics/SVG/1.1/DTD/svg11.dtd">
<svg viewBox="0 0 935 1210" version="1.1" xmlns="http://www.w3.org/2000/svg" xmlns:xlink="http://www.w3.org/1999/xlink">
<defs>
<clipPath id="c0_1"><path d="M473.3,262l0,-29.9l41.8,0l0,29.9Z" /></clipPath>
<clipPath id="c1_1"><path d="M40.3,850.6l0,-16.9l853.3,0l0,16.9Z" /></clipPath>
<clipPath id="c2_1"><path d="M40.3,866.2l0,-14.9l853.3,0l0,14.9Z" /></clipPath>
<clipPath id="c3_1"><path d="M40.3,1043.9l0,-15.1l481.2,0l0,15.1Z" /></clipPath>
<clipPath id="c4_1"><path d="M541.9,1043.9l0,-15.1l351.7,0l0,15.1Z" /></clipPath>
<style type="text/css"><![CDATA[
.g1_1{
fill: #E2AC00;
}
.g2_1{
fill: none;
stroke: #4F81BD;
stroke-width: 0.2138889;
stroke-linecap: butt;
stroke-linejoin: miter;
}
.g3_1{
fill: #FFFFFF;
}
.g4_1{
}
.g5_1{
fill: #013EB7;
}
]]></style>
</defs>
<path d="M716.7,83.5l0,7.2l1.9,0c0.7,0,1.3,-0.1,1.7,-0.3c0.5,-0.2,0.9,-0.4,1.2,-0.8c0.3,-0.3,0.5,-0.7,0.6,-1.2c0.2,-0.4,0.3,-0.9,0.3,-1.5c0,-0.7,-0.2,-1.3,-0.4,-1.8c-0.3,-0.5,-0.6,-0.8,-1,-1.1c-0.4,-0.2,-0.8,-0.3,-1.2,-0.4c-0.4,-0.1,-0.8,-0.1,-1.3,-0.1Zm40.5,0l0,6l2.2,0c0.6,0,1.1,-0.1,1.6,-0.2c0.4,-0.2,0.8,-0.4,1.1,-0.7c0.3,-0.2,0.6,-0.5,0.7,-0.9C763,87.3,763,86.9,763,86.4c0,-0.7,-0.1,-1.2,-0.4,-1.7c-0.3,-0.5,-0.9,-0.8,-1.6,-1c-0.2,-0.1,-0.4,-0.1,-0.7,-0.2c-0.3,0,-0.7,0,-1.2,0Zm-75.7,0l0,6l2.2,0c0.6,0,1.1,-0.1,1.6,-0.2c0.4,-0.2,0.8,-0.4,1.1,-0.7c0.3,-0.2,0.6,-0.5,0.7,-0.9c0.2,-0.4,0.2,-0.8,0.2,-1.3c0,-0.7,-0.1,-1.2,-0.4,-1.7c-0.4,-0.5,-0.9,-0.8,-1.6,-1c-0.2,-0.1,-0.5,-0.1,-0.7,-0.2c-0.3,0,-0.7,0,-1.2,0Zm57.7,-0.2c-1,0,-1.9,0.2,-2.6,0.7c-0.7,0.3,-1.3,0.9,-1.7,1.5c-0.5,0.7,-0.8,1.5,-1,2.4c-0.1,0.9,-0.2,1.8,-0.2,2.8c0,1.2,0,2.2,0.2,3.1c0.2,1,0.5,1.7,0.9,2.4c0.4,0.6,1,1.1,1.7,1.5c0.7,0.3,1.6,0.5,2.6,0.5c1.1,0,2,-0.2,2.7,-0.6c0.7,-0.4,1.2,-0.9,1.7,-1.6c0.4,-0.7,0.7,-1.5,0.9,-2.4c0.2,-0.9,0.3,-1.8,0.3,-2.8c0,-1.2,-0.1,-2.2,-0.3,-3.1C744.3,86.8,744,86,743.5,85.4c-0.4,-0.7,-0.9,-1.2,-1.6,-1.5c-0.7,-0.4,-1.6,-0.6,-2.7,-0.6Zm15,-3.1l5.4,0c0.6,0,1.1,0,1.4,0c0.4,0,0.7,0.1,1,0.1c0.9,0.1,1.6,0.3,2.3,0.6c0.7,0.3,1.3,0.7,1.7,1.2c0.5,0.4,0.9,1,1.1,1.7c0.3,0.6,0.4,1.4,0.4,2.2c0,0.7,-0.1,1.4,-0.3,1.9c-0.1,0.6,-0.4,1.2,-0.8,1.6c-0.3,0.5,-0.7,0.9,-1.3,1.2c-0.5,0.3,-1.1,0.6,-1.7,0.8c0.3,0.2,0.6,0.4,0.9,0.6c0.3,0.2,0.5,0.5,0.8,0.8c0.2,0.3,0.5,0.6,0.7,1c0.2,0.4,0.4,0.9,0.6,1.4l1.8,4.2c0.2,0.4,0.3,0.7,0.3,0.9c0.1,0.2,0.1,0.3,0.1,0.4c0,0.1,0,0.2,-0.1,0.3c0,0.1,-0.1,0.2,-0.3,0.2c-0.1,0.1,-0.4,0.1,-0.7,0.1c-0.3,0.1,-0.7,0.1,-1.3,0.1c-0.4,0,-0.8,0,-1.1,-0.1c-0.3,0,-0.5,0,-0.6,-0.1c-0.2,0,-0.3,-0.1,-0.4,-0.2c0,-0.1,-0.1,-0.2,-0.1,-0.3L762.1,96c-0.3,-0.5,-0.5,-1,-0.7,-1.4c-0.2,-0.4,-0.5,-0.8,-0.7,-1c-0.3,-0.3,-0.6,-0.5,-1,-0.7c-0.3,-0.1,-0.7,-0.2,-1.2,-0.2l-1.3,0l0,8.1c0,0.1,0,0.2,-0.1,0.3c-0.1,0.1,-0.2,0.1,-0.4,0.2c-0.1,0.1,-0.4,0.1,-0.6,0.1c-0.3,0.1,-0.6,0.1,-1.1,0.1c-0.4,0,-0.7,0,-1,-0.1c-0.3,0,-0.5,0,-0.7,-0.1c-0.2,-0.1,-0.3,-0.1,-0.3,-0.2c-0.1,-0.1,-0.1,-0.2,-0.1,-0.3l0,-19.3c0,-0.4,0.1,-0.8,0.3,-1c0.3,-0.2,0.6,-0.3,1,-0.3Zm-40.4,0l5,0c0.5,0,1,0,1.4,0c0.5,0.1,1,0.2,1.7,0.3c0.6,0.1,1.3,0.3,1.9,0.7c0.7,0.3,1.2,0.8,1.7,1.3c0.4,0.5,0.8,1.1,1,1.8c0.2,0.7,0.4,1.5,0.4,2.3c0,1.2,-0.2,2.3,-0.6,3.2c-0.4,0.9,-0.9,1.7,-1.6,2.3c-0.7,0.6,-1.6,1.1,-2.6,1.4C721,93.9,719.8,94,718.4,94l-1.7,0l0,6.8c0,0.1,-0.1,0.2,-0.1,0.3c-0.1,0.1,-0.2,0.1,-0.4,0.2c-0.2,0.1,-0.4,0.1,-0.7,0.1c-0.2,0.1,-0.6,0.1,-1,0.1c-0.4,0,-0.8,0,-1,-0.1c-0.3,0,-0.5,0,-0.7,-0.1c-0.2,-0.1,-0.3,-0.1,-0.3,-0.2c-0.1,-0.1,-0.1,-0.2,-0.1,-0.3l0,-19.1c0,-0.5,0.1,-0.9,0.4,-1.1c0.2,-0.3,0.6,-0.4,1,-0.4Zm-16.5,0l10.6,0c0.1,0,0.2,0,0.3,0.1c0,0,0.1,0.1,0.2,0.3c0,0.1,0.1,0.3,0.1,0.5c0,0.2,0,0.5,0,0.8c0,0.3,0,0.6,0,0.8c0,0.2,-0.1,0.3,-0.1,0.5c-0.1,0.1,-0.2,0.2,-0.2,0.3c-0.1,0,-0.2,0.1,-0.3,0.1l-7.6,0l0,5.1l6.4,0c0.1,0,0.2,0.1,0.3,0.1c0.1,0.1,0.2,0.2,0.2,0.3c0.1,0.1,0.1,0.3,0.1,0.5c0.1,0.2,0.1,0.5,0.1,0.8c0,0.3,0,0.6,-0.1,0.8c0,0.2,0,0.3,-0.1,0.5c0,0.1,-0.1,0.2,-0.2,0.2C706.9,92,706.8,92,706.7,92l-6.4,0l0,6l7.7,0c0.1,0,0.2,0,0.2,0.1c0.1,0.1,0.2,0.2,0.2,0.3c0.1,0.1,0.1,0.3,0.2,0.5c0,0.2,0,0.5,0,0.8c0,0.3,0,0.6,0,0.8c-0.1,0.2,-0.1,0.4,-0.2,0.5c0,0.1,-0.1,0.2,-0.2,0.3c0,0.1,-0.1,0.1,-0.2,0.1l-10.7,0c-0.3,0,-0.6,-0.1,-0.9,-0.3C696.2,100.8,696,100.5,696,100l0,-18.5c0,-0.4,0.2,-0.8,0.4,-1c0.3,-0.2,0.6,-0.3,0.9,-0.3Zm-18.9,0l5.5,0c0.6,0,1,0,1.4,0c0.4,0,0.7,0.1,1,0.1c0.8,0.1,1.6,0.3,2.3,0.6c0.7,0.3,1.3,0.7,1.7,1.2c0.5,0.4,0.9,1,1.1,1.7c0.3,0.6,0.4,1.4,0.4,2.2c0,0.7,-0.1,1.4,-0.3,1.9c-0.2,0.6,-0.4,1.2,-0.8,1.6c-0.3,0.5,-0.8,0.9,-1.3,1.2c-0.5,0.3,-1.1,0.6,-1.7,0.8c0.3,0.2,0.6,0.4,0.9,0.6c0.2,0.2,0.5,0.5,0.7,0.8c0.3,0.3,0.5,0.6,0.8,1c0.2,0.4,0.4,0.9,0.6,1.4l1.8,4.2c0.1,0.4,0.3,0.7,0.3,0.9c0.1,0.2,0.1,0.3,0.1,0.4c0,0.1,0,0.2,-0.1,0.3c0,0.1,-0.1,0.2,-0.3,0.2c-0.2,0.1,-0.4,0.1,-0.7,0.1c-0.3,0.1,-0.8,0.1,-1.3,0.1c-0.5,0,-0.8,0,-1.1,-0.1c-0.3,0,-0.5,0,-0.6,-0.1c-0.2,0,-0.3,-0.1,-0.4,-0.2c0,-0.1,-0.1,-0.2,-0.2,-0.3L686.4,96c-0.3,-0.5,-0.5,-1,-0.7,-1.4c-0.2,-0.4,-0.5,-0.8,-0.8,-1c-0.2,-0.3,-0.5,-0.5,-0.9,-0.7c-0.3,-0.1,-0.7,-0.2,-1.2,-0.2l-1.3,0l0,8.1c0,0.1,-0.1,0.2,-0.1,0.3c-0.1,0.1,-0.2,0.1,-0.4,0.2c-0.2,0.1,-0.4,0.1,-0.6,0.1c-0.3,0.1,-0.7,0.1,-1.1,0.1c-0.4,0,-0.8,0,-1,-0.1c-0.3,0,-0.5,0,-0.7,-0.1c-0.2,-0.1,-0.3,-0.1,-0.3,-0.2c-0.1,-0.1,-0.1,-0.2,-0.1,-0.3l0,-19.3c0,-0.4,0.1,-0.8,0.3,-1c0.3,-0.2,0.6,-0.3,0.9,-0.3Zm61,-0.4c1.6,0,3,0.2,4.2,0.7c1.3,0.4,2.3,1,3.1,1.9c0.8,0.9,1.5,2,1.9,3.4c0.4,1.3,0.6,2.9,0.6,4.7c0,1.8,-0.2,3.4,-0.7,4.8c-0.4,1.3,-1,2.5,-1.9,3.5c-0.9,0.9,-1.9,1.7,-3.2,2.2c-1.3,0.5,-2.7,0.8,-4.4,0.8c-1.7,0,-3.1,-0.2,-4.3,-0.7c-1.3,-0.4,-2.3,-1.1,-3.1,-2c-0.8,-0.8,-1.4,-2,-1.8,-3.3c-0.5,-1.4,-0.7,-3,-0.7,-4.9c0,-1.7,0.3,-3.2,0.7,-4.6c0.4,-1.4,1.1,-2.5,1.9,-3.5c0.9,-1,2,-1.7,3.3,-2.2c1.2,-0.5,2.7,-0.8,4.4,-0.8Z" class="g1_1" />
<path d="M716.7,83.5l0,7.2l1.9,0c0.7,0,1.3,-0.1,1.7,-0.3c0.5,-0.2,0.9,-0.4,1.2,-0.8c0.3,-0.3,0.5,-0.7,0.6,-1.2c0.2,-0.4,0.3,-0.9,0.3,-1.5c0,-0.7,-0.2,-1.3,-0.4,-1.8c-0.3,-0.5,-0.6,-0.8,-1,-1.1c-0.4,-0.2,-0.8,-0.3,-1.2,-0.4c-0.4,-0.1,-0.8,-0.1,-1.3,-0.1Zm40.5,0l0,6l2.2,0c0.6,0,1.1,-0.1,1.6,-0.2c0.4,-0.2,0.8,-0.4,1.1,-0.7c0.3,-0.2,0.6,-0.5,0.7,-0.9C763,87.3,763,86.9,763,86.4c0,-0.7,-0.1,-1.2,-0.4,-1.7c-0.3,-0.5,-0.9,-0.8,-1.6,-1c-0.2,-0.1,-0.4,-0.1,-0.7,-0.2c-0.3,0,-0.7,0,-1.2,0Zm-75.7,0l0,6l2.2,0c0.6,0,1.1,-0.1,1.6,-0.2c0.4,-0.2,0.8,-0.4,1.1,-0.7c0.3,-0.2,0.6,-0.5,0.7,-0.9c0.2,-0.4,0.2,-0.8,0.2,-1.3c0,-0.7,-0.1,-1.2,-0.4,-1.7c-0.4,-0.5,-0.9,-0.8,-1.6,-1c-0.2,-0.1,-0.5,-0.1,-0.7,-0.2c-0.3,0,-0.7,0,-1.2,0Zm57.7,-0.2c-1,0,-1.9,0.2,-2.6,0.7c-0.7,0.3,-1.3,0.9,-1.7,1.5c-0.5,0.7,-0.8,1.5,-1,2.4c-0.1,0.9,-0.2,1.8,-0.2,2.8c0,1.2,0,2.2,0.2,3.1c0.2,1,0.5,1.7,0.9,2.4c0.4,0.6,1,1.1,1.7,1.5c0.7,0.3,1.6,0.5,2.6,0.5c1.1,0,2,-0.2,2.7,-0.6c0.7,-0.4,1.2,-0.9,1.7,-1.6c0.4,-0.7,0.7,-1.5,0.9,-2.4c0.2,-0.9,0.3,-1.8,0.3,-2.8c0,-1.2,-0.1,-2.2,-0.3,-3.1C744.3,86.8,744,86,743.5,85.4c-0.4,-0.7,-0.9,-1.2,-1.6,-1.5c-0.7,-0.4,-1.6,-0.6,-2.7,-0.6Zm15,-3.1l5.4,0c0.6,0,1.1,0,1.4,0c0.4,0,0.7,0.1,1,0.1c0.9,0.1,1.6,0.3,2.3,0.6c0.7,0.3,1.3,0.7,1.7,1.2c0.5,0.4,0.9,1,1.1,1.7c0.3,0.6,0.4,1.4,0.4,2.2c0,0.7,-0.1,1.4,-0.3,1.9c-0.1,0.6,-0.4,1.2,-0.8,1.6c-0.3,0.5,-0.7,0.9,-1.3,1.2c-0.5,0.3,-1.1,0.6,-1.7,0.8c0.3,0.2,0.6,0.4,0.9,0.6c0.3,0.2,0.5,0.5,0.8,0.8c0.2,0.3,0.5,0.6,0.7,1c0.2,0.4,0.4,0.9,0.6,1.4l1.8,4.2c0.2,0.4,0.3,0.7,0.3,0.9c0.1,0.2,0.1,0.3,0.1,0.4c0,0.1,0,0.2,-0.1,0.3c0,0.1,-0.1,0.2,-0.3,0.2c-0.1,0.1,-0.4,0.1,-0.7,0.1c-0.3,0.1,-0.7,0.1,-1.3,0.1c-0.4,0,-0.8,0,-1.1,-0.1c-0.3,0,-0.5,0,-0.6,-0.1c-0.2,0,-0.3,-0.1,-0.4,-0.2c0,-0.1,-0.1,-0.2,-0.1,-0.3L762.1,96c-0.3,-0.5,-0.5,-1,-0.7,-1.4c-0.2,-0.4,-0.5,-0.8,-0.7,-1c-0.3,-0.3,-0.6,-0.5,-1,-0.7c-0.3,-0.1,-0.7,-0.2,-1.2,-0.2l-1.3,0l0,8.1c0,0.1,0,0.2,-0.1,0.3c-0.1,0.1,-0.2,0.1,-0.4,0.2c-0.1,0.1,-0.4,0.1,-0.6,0.1c-0.3,0.1,-0.6,0.1,-1.1,0.1c-0.4,0,-0.7,0,-1,-0.1c-0.3,0,-0.5,0,-0.7,-0.1c-0.2,-0.1,-0.3,-0.1,-0.3,-0.2c-0.1,-0.1,-0.1,-0.2,-0.1,-0.3l0,-19.3c0,-0.4,0.1,-0.8,0.3,-1c0.3,-0.2,0.6,-0.3,1,-0.3Zm-40.4,0l5,0c0.5,0,1,0,1.4,0c0.5,0.1,1,0.2,1.7,0.3c0.6,0.1,1.3,0.3,1.9,0.7c0.7,0.3,1.2,0.8,1.7,1.3c0.4,0.5,0.8,1.1,1,1.8c0.2,0.7,0.4,1.5,0.4,2.3c0,1.2,-0.2,2.3,-0.6,3.2c-0.4,0.9,-0.9,1.7,-1.6,2.3c-0.7,0.6,-1.6,1.1,-2.6,1.4C721,93.9,719.8,94,718.4,94l-1.7,0l0,6.8c0,0.1,-0.1,0.2,-0.1,0.3c-0.1,0.1,-0.2,0.1,-0.4,0.2c-0.2,0.1,-0.4,0.1,-0.7,0.1c-0.2,0.1,-0.6,0.1,-1,0.1c-0.4,0,-0.8,0,-1,-0.1c-0.3,0,-0.5,0,-0.7,-0.1c-0.2,-0.1,-0.3,-0.1,-0.3,-0.2c-0.1,-0.1,-0.1,-0.2,-0.1,-0.3l0,-19.1c0,-0.5,0.1,-0.9,0.4,-1.1c0.2,-0.3,0.6,-0.4,1,-0.4Zm-16.5,0l10.6,0c0.1,0,0.2,0,0.3,0.1c0,0,0.1,0.1,0.2,0.3c0,0.1,0.1,0.3,0.1,0.5c0,0.2,0,0.5,0,0.8c0,0.3,0,0.6,0,0.8c0,0.2,-0.1,0.3,-0.1,0.5c-0.1,0.1,-0.2,0.2,-0.2,0.3c-0.1,0,-0.2,0.1,-0.3,0.1l-7.6,0l0,5.1l6.4,0c0.1,0,0.2,0.1,0.3,0.1c0.1,0.1,0.2,0.2,0.2,0.3c0.1,0.1,0.1,0.3,0.1,0.5c0.1,0.2,0.1,0.5,0.1,0.8c0,0.3,0,0.6,-0.1,0.8c0,0.2,0,0.3,-0.1,0.5c0,0.1,-0.1,0.2,-0.2,0.2C706.9,92,706.8,92,706.7,92l-6.4,0l0,6l7.7,0c0.1,0,0.2,0,0.2,0.1c0.1,0.1,0.2,0.2,0.2,0.3c0.1,0.1,0.1,0.3,0.2,0.5c0,0.2,0,0.5,0,0.8c0,0.3,0,0.6,0,0.8c-0.1,0.2,-0.1,0.4,-0.2,0.5c0,0.1,-0.1,0.2,-0.2,0.3c0,0.1,-0.1,0.1,-0.2,0.1l-10.7,0c-0.3,0,-0.6,-0.1,-0.9,-0.3C696.2,100.8,696,100.5,696,100l0,-18.5c0,-0.4,0.2,-0.8,0.4,-1c0.3,-0.2,0.6,-0.3,0.9,-0.3Zm-18.9,0l5.5,0c0.6,0,1,0,1.4,0c0.4,0,0.7,0.1,1,0.1c0.8,0.1,1.6,0.3,2.3,0.6c0.7,0.3,1.3,0.7,1.7,1.2c0.5,0.4,0.9,1,1.1,1.7c0.3,0.6,0.4,1.4,0.4,2.2c0,0.7,-0.1,1.4,-0.3,1.9c-0.2,0.6,-0.4,1.2,-0.8,1.6c-0.3,0.5,-0.8,0.9,-1.3,1.2c-0.5,0.3,-1.1,0.6,-1.7,0.8c0.3,0.2,0.6,0.4,0.9,0.6c0.2,0.2,0.5,0.5,0.7,0.8c0.3,0.3,0.5,0.6,0.8,1c0.2,0.4,0.4,0.9,0.6,1.4l1.8,4.2c0.1,0.4,0.3,0.7,0.3,0.9c0.1,0.2,0.1,0.3,0.1,0.4c0,0.1,0,0.2,-0.1,0.3c0,0.1,-0.1,0.2,-0.3,0.2c-0.2,0.1,-0.4,0.1,-0.7,0.1c-0.3,0.1,-0.8,0.1,-1.3,0.1c-0.5,0,-0.8,0,-1.1,-0.1c-0.3,0,-0.5,0,-0.6,-0.1c-0.2,0,-0.3,-0.1,-0.4,-0.2c0,-0.1,-0.1,-0.2,-0.2,-0.3L686.4,96c-0.3,-0.5,-0.5,-1,-0.7,-1.4c-0.2,-0.4,-0.5,-0.8,-0.8,-1c-0.2,-0.3,-0.5,-0.5,-0.9,-0.7c-0.3,-0.1,-0.7,-0.2,-1.2,-0.2l-1.3,0l0,8.1c0,0.1,-0.1,0.2,-0.1,0.3c-0.1,0.1,-0.2,0.1,-0.4,0.2c-0.2,0.1,-0.4,0.1,-0.6,0.1c-0.3,0.1,-0.7,0.1,-1.1,0.1c-0.4,0,-0.8,0,-1,-0.1c-0.3,0,-0.5,0,-0.7,-0.1c-0.2,-0.1,-0.3,-0.1,-0.3,-0.2c-0.1,-0.1,-0.1,-0.2,-0.1,-0.3l0,-19.3c0,-0.4,0.1,-0.8,0.3,-1c0.3,-0.2,0.6,-0.3,0.9,-0.3Zm61,-0.4c1.6,0,3,0.2,4.2,0.7c1.3,0.4,2.3,1,3.1,1.9c0.8,0.9,1.5,2,1.9,3.4c0.4,1.3,0.6,2.9,0.6,4.7c0,1.8,-0.2,3.4,-0.7,4.8c-0.4,1.3,-1,2.5,-1.9,3.5c-0.9,0.9,-1.9,1.7,-3.2,2.2c-1.3,0.5,-2.7,0.8,-4.4,0.8c-1.7,0,-3.1,-0.2,-4.3,-0.7c-1.3,-0.4,-2.3,-1.1,-3.1,-2c-0.8,-0.8,-1.4,-2,-1.8,-3.3c-0.5,-1.4,-0.7,-3,-0.7,-4.9c0,-1.7,0.3,-3.2,0.7,-4.6c0.4,-1.4,1.1,-2.5,1.9,-3.5c0.9,-1,2,-1.7,3.3,-2.2c1.2,-0.5,2.7,-0.8,4.4,-0.8Z" class="g2_1" />
<path d="M821.5,84.2l-2.9,9l6,0l-3,-9Zm36.1,-0.6l0,14.4l2.3,0c1.2,0,2.1,-0.2,3,-0.5c0.8,-0.3,1.4,-0.7,2,-1.4c0.5,-0.6,0.9,-1.3,1.2,-2.3c0.3,-0.9,0.4,-2,0.4,-3.2c0,-1,-0.1,-1.9,-0.4,-2.8C865.9,87,865.5,86.2,865,85.6c-0.5,-0.7,-1.2,-1.2,-2,-1.5c-0.8,-0.4,-1.9,-0.5,-3.2,-0.5Zm-19,-0.1l0,6l2.2,0c0.6,0,1.1,-0.1,1.6,-0.2c0.4,-0.2,0.8,-0.4,1.1,-0.7c0.3,-0.2,0.6,-0.5,0.7,-0.9c0.2,-0.4,0.2,-0.8,0.2,-1.3c0,-0.7,-0.1,-1.2,-0.4,-1.7c-0.3,-0.5,-0.9,-0.8,-1.6,-1c-0.2,-0.1,-0.4,-0.1,-0.7,-0.2c-0.3,0,-0.7,0,-1.2,0Zm16,-3.3l5.5,0c1.8,0,3.4,0.2,4.8,0.6c1.3,0.5,2.4,1.2,3.3,2c0.9,0.9,1.6,2,2.1,3.2c0.4,1.3,0.7,2.8,0.7,4.5c0,1.9,-0.3,3.6,-0.8,5C869.7,96.8,869,98,868,98.8c-0.9,0.9,-2.1,1.6,-3.5,2c-1.3,0.4,-2.9,0.6,-4.8,0.6l-5.1,0c-0.3,0,-0.6,-0.1,-0.9,-0.3c-0.2,-0.3,-0.4,-0.6,-0.4,-1.1l0,-18.5c0,-0.4,0.2,-0.8,0.4,-1c0.3,-0.2,0.6,-0.3,0.9,-0.3Zm-19,0l5.4,0c0.6,0,1.1,0,1.4,0c0.4,0,0.7,0.1,1,0.1c0.8,0.1,1.6,0.3,2.3,0.6c0.7,0.3,1.3,0.7,1.7,1.2c0.5,0.4,0.9,1,1.1,1.7c0.3,0.6,0.4,1.4,0.4,2.2c0,0.7,-0.1,1.4,-0.3,1.9c-0.1,0.6,-0.4,1.2,-0.8,1.6c-0.3,0.5,-0.7,0.9,-1.3,1.2c-0.5,0.3,-1.1,0.6,-1.7,0.8c0.3,0.2,0.6,0.4,0.9,0.6c0.3,0.2,0.5,0.5,0.8,0.8c0.2,0.3,0.5,0.6,0.7,1c0.2,0.4,0.4,0.9,0.6,1.4l1.8,4.2c0.2,0.4,0.3,0.7,0.3,0.9c0.1,0.2,0.1,0.3,0.1,0.4c0,0.1,0,0.2,-0.1,0.3c0,0.1,-0.1,0.2,-0.3,0.2c-0.1,0.1,-0.4,0.1,-0.7,0.1c-0.3,0.1,-0.7,0.1,-1.3,0.1c-0.4,0,-0.8,0,-1.1,-0.1c-0.3,0,-0.5,0,-0.6,-0.1c-0.2,0,-0.3,-0.1,-0.4,-0.2c0,-0.1,-0.1,-0.2,-0.1,-0.3L843.5,96c-0.3,-0.5,-0.5,-1,-0.7,-1.4c-0.2,-0.4,-0.5,-0.8,-0.7,-1c-0.3,-0.3,-0.6,-0.5,-1,-0.7c-0.3,-0.1,-0.7,-0.2,-1.2,-0.2l-1.3,0l0,8.1c0,0.1,0,0.2,-0.1,0.3c-0.1,0.1,-0.2,0.1,-0.4,0.2c-0.1,0.1,-0.4,0.1,-0.6,0.1c-0.3,0.1,-0.6,0.1,-1.1,0.1c-0.4,0,-0.7,0,-1,-0.1c-0.3,0,-0.5,0,-0.7,-0.1c-0.2,-0.1,-0.3,-0.1,-0.3,-0.2c-0.1,-0.1,-0.1,-0.2,-0.1,-0.3l0,-19.3c0,-0.4,0.1,-0.8,0.3,-1c0.3,-0.2,0.6,-0.3,1,-0.3Zm-65.3,0l14.9,0c0.1,0,0.2,0,0.3,0.1c0.1,0,0.1,0.1,0.2,0.3c0.1,0.1,0.1,0.3,0.1,0.5c0.1,0.3,0.1,0.5,0.1,0.9c0,0.3,0,0.5,-0.1,0.8c0,0.2,0,0.4,-0.1,0.5c-0.1,0.1,-0.1,0.2,-0.2,0.3c-0.1,0.1,-0.2,0.1,-0.3,0.1l-5.3,0l0,17.1c0,0.1,0,0.2,-0.1,0.3c-0.1,0.1,-0.2,0.1,-0.3,0.2c-0.2,0.1,-0.4,0.1,-0.7,0.1c-0.3,0.1,-0.6,0.1,-1,0.1c-0.5,0,-0.8,0,-1.1,-0.1c-0.3,0,-0.5,0,-0.7,-0.1c-0.1,-0.1,-0.2,-0.1,-0.3,-0.2c-0.1,-0.1,-0.1,-0.2,-0.1,-0.3l0,-17.1l-5.3,0c-0.1,0,-0.2,0,-0.3,-0.1c-0.1,-0.1,-0.1,-0.2,-0.2,-0.3c0,-0.1,-0.1,-0.3,-0.1,-0.5c0,-0.3,-0.1,-0.5,-0.1,-0.8c0,-0.4,0.1,-0.6,0.1,-0.9c0,-0.2,0.1,-0.4,0.1,-0.5c0.1,-0.2,0.1,-0.3,0.2,-0.3c0.1,-0.1,0.2,-0.1,0.3,-0.1Zm51.3,-0.1c0.7,0,1.2,0,1.6,0c0.3,0,0.6,0.1,0.8,0.1c0.3,0.1,0.4,0.2,0.5,0.3c0.1,0.1,0.2,0.3,0.2,0.5l6.6,18.8c0.1,0.4,0.2,0.7,0.2,0.9c0.1,0.2,0,0.4,-0.1,0.5c-0.1,0.1,-0.3,0.2,-0.6,0.2c-0.3,0.1,-0.8,0.1,-1.3,0.1c-0.6,0,-1,0,-1.3,0c-0.3,-0.1,-0.5,-0.1,-0.7,-0.1c-0.2,-0.1,-0.3,-0.2,-0.3,-0.2C827.1,101.1,827,101,827,100.8l-1.5,-4.2l-7.9,0l-1.4,4.1c0,0.1,0,0.3,-0.1,0.4c-0.1,0.1,-0.2,0.2,-0.4,0.2c-0.1,0.1,-0.3,0.1,-0.6,0.1c-0.3,0.1,-0.7,0.1,-1.2,0.1c-0.5,0,-0.9,0,-1.2,-0.1c-0.2,0,-0.4,-0.1,-0.5,-0.2C812,101.1,812,100.9,812,100.7c0.1,-0.3,0.2,-0.6,0.3,-1l6.5,-18.8c0.1,-0.1,0.2,-0.3,0.3,-0.4c0,-0.1,0.2,-0.2,0.4,-0.3c0.2,0,0.4,-0.1,0.8,-0.1c0.3,0,0.8,0,1.3,0ZM805,79.8c0.6,0,1.1,0.1,1.7,0.2c0.5,0.1,1,0.2,1.5,0.4c0.4,0.1,0.9,0.3,1.2,0.5c0.4,0.2,0.7,0.4,0.8,0.6c0.1,0.1,0.3,0.2,0.3,0.3c0.1,0.1,0.1,0.2,0.1,0.4c0.1,0.1,0.1,0.3,0.1,0.5c0,0.2,0,0.5,0,0.8c0,0.3,0,0.6,0,0.8c0,0.3,-0.1,0.5,-0.1,0.6c-0.1,0.2,-0.1,0.2,-0.2,0.3c-0.1,0.1,-0.2,0.1,-0.3,0.1c-0.1,0,-0.3,-0.1,-0.6,-0.3c-0.2,-0.2,-0.6,-0.4,-1,-0.6c-0.4,-0.2,-0.8,-0.5,-1.4,-0.6c-0.5,-0.2,-1.2,-0.3,-2,-0.3c-0.8,0,-1.5,0.1,-2.2,0.5c-0.7,0.3,-1.2,0.8,-1.7,1.4c-0.5,0.7,-0.8,1.5,-1.1,2.4c-0.2,0.9,-0.3,1.9,-0.3,3c0,1.3,0.1,2.4,0.4,3.3c0.2,0.9,0.6,1.6,1.1,2.2c0.4,0.6,1,1,1.7,1.3c0.7,0.3,1.4,0.5,2.2,0.5c0.8,0,1.5,-0.1,2,-0.3c0.6,-0.2,1.1,-0.4,1.5,-0.6c0.4,-0.2,0.7,-0.4,0.9,-0.6c0.3,-0.2,0.5,-0.2,0.6,-0.2c0.2,0,0.2,0,0.3,0c0.1,0.1,0.1,0.2,0.2,0.3c0,0.1,0,0.3,0.1,0.5c0,0.3,0,0.6,0,1c0,0.3,0,0.5,0,0.7c0,0.2,-0.1,0.3,-0.1,0.5c0,0.1,-0.1,0.2,-0.1,0.3c-0.1,0.1,-0.2,0.2,-0.3,0.4c-0.1,0.1,-0.3,0.2,-0.7,0.4c-0.3,0.2,-0.7,0.4,-1.2,0.6c-0.5,0.2,-1.1,0.3,-1.7,0.5c-0.7,0.1,-1.4,0.1,-2.1,0.1c-1.5,0,-2.8,-0.2,-4,-0.6c-1.1,-0.5,-2.1,-1.2,-2.9,-2.1c-0.9,-0.8,-1.5,-2,-1.9,-3.3c-0.5,-1.3,-0.7,-2.9,-0.7,-4.6c0,-1.8,0.3,-3.4,0.7,-4.8c0.5,-1.4,1.2,-2.6,2.1,-3.6c0.8,-0.9,1.9,-1.6,3.1,-2.1c1.2,-0.5,2.5,-0.8,4,-0.8Z" class="g1_1" />
<path d="M821.5,84.2l-2.9,9l6,0l-3,-9Zm36.1,-0.6l0,14.4l2.3,0c1.2,0,2.1,-0.2,3,-0.5c0.8,-0.3,1.4,-0.7,2,-1.4c0.5,-0.6,0.9,-1.3,1.2,-2.3c0.3,-0.9,0.4,-2,0.4,-3.2c0,-1,-0.1,-1.9,-0.4,-2.8C865.9,87,865.5,86.2,865,85.6c-0.5,-0.7,-1.2,-1.2,-2,-1.5c-0.8,-0.4,-1.9,-0.5,-3.2,-0.5Zm-19,-0.1l0,6l2.2,0c0.6,0,1.1,-0.1,1.6,-0.2c0.4,-0.2,0.8,-0.4,1.1,-0.7c0.3,-0.2,0.6,-0.5,0.7,-0.9c0.2,-0.4,0.2,-0.8,0.2,-1.3c0,-0.7,-0.1,-1.2,-0.4,-1.7c-0.3,-0.5,-0.9,-0.8,-1.6,-1c-0.2,-0.1,-0.4,-0.1,-0.7,-0.2c-0.3,0,-0.7,0,-1.2,0Zm16,-3.3l5.5,0c1.8,0,3.4,0.2,4.8,0.6c1.3,0.5,2.4,1.2,3.3,2c0.9,0.9,1.6,2,2.1,3.2c0.4,1.3,0.7,2.8,0.7,4.5c0,1.9,-0.3,3.6,-0.8,5C869.7,96.8,869,98,868,98.8c-0.9,0.9,-2.1,1.6,-3.5,2c-1.3,0.4,-2.9,0.6,-4.8,0.6l-5.1,0c-0.3,0,-0.6,-0.1,-0.9,-0.3c-0.2,-0.3,-0.4,-0.6,-0.4,-1.1l0,-18.5c0,-0.4,0.2,-0.8,0.4,-1c0.3,-0.2,0.6,-0.3,0.9,-0.3Zm-19,0l5.4,0c0.6,0,1.1,0,1.4,0c0.4,0,0.7,0.1,1,0.1c0.8,0.1,1.6,0.3,2.3,0.6c0.7,0.3,1.3,0.7,1.7,1.2c0.5,0.4,0.9,1,1.1,1.7c0.3,0.6,0.4,1.4,0.4,2.2c0,0.7,-0.1,1.4,-0.3,1.9c-0.1,0.6,-0.4,1.2,-0.8,1.6c-0.3,0.5,-0.7,0.9,-1.3,1.2c-0.5,0.3,-1.1,0.6,-1.7,0.8c0.3,0.2,0.6,0.4,0.9,0.6c0.3,0.2,0.5,0.5,0.8,0.8c0.2,0.3,0.5,0.6,0.7,1c0.2,0.4,0.4,0.9,0.6,1.4l1.8,4.2c0.2,0.4,0.3,0.7,0.3,0.9c0.1,0.2,0.1,0.3,0.1,0.4c0,0.1,0,0.2,-0.1,0.3c0,0.1,-0.1,0.2,-0.3,0.2c-0.1,0.1,-0.4,0.1,-0.7,0.1c-0.3,0.1,-0.7,0.1,-1.3,0.1c-0.4,0,-0.8,0,-1.1,-0.1c-0.3,0,-0.5,0,-0.6,-0.1c-0.2,0,-0.3,-0.1,-0.4,-0.2c0,-0.1,-0.1,-0.2,-0.1,-0.3L843.5,96c-0.3,-0.5,-0.5,-1,-0.7,-1.4c-0.2,-0.4,-0.5,-0.8,-0.7,-1c-0.3,-0.3,-0.6,-0.5,-1,-0.7c-0.3,-0.1,-0.7,-0.2,-1.2,-0.2l-1.3,0l0,8.1c0,0.1,0,0.2,-0.1,0.3c-0.1,0.1,-0.2,0.1,-0.4,0.2c-0.1,0.1,-0.4,0.1,-0.6,0.1c-0.3,0.1,-0.6,0.1,-1.1,0.1c-0.4,0,-0.7,0,-1,-0.1c-0.3,0,-0.5,0,-0.7,-0.1c-0.2,-0.1,-0.3,-0.1,-0.3,-0.2c-0.1,-0.1,-0.1,-0.2,-0.1,-0.3l0,-19.3c0,-0.4,0.1,-0.8,0.3,-1c0.3,-0.2,0.6,-0.3,1,-0.3Zm-65.3,0l14.9,0c0.1,0,0.2,0,0.3,0.1c0.1,0,0.1,0.1,0.2,0.3c0.1,0.1,0.1,0.3,0.1,0.5c0.1,0.3,0.1,0.5,0.1,0.9c0,0.3,0,0.5,-0.1,0.8c0,0.2,0,0.4,-0.1,0.5c-0.1,0.1,-0.1,0.2,-0.2,0.3c-0.1,0.1,-0.2,0.1,-0.3,0.1l-5.3,0l0,17.1c0,0.1,0,0.2,-0.1,0.3c-0.1,0.1,-0.2,0.1,-0.3,0.2c-0.2,0.1,-0.4,0.1,-0.7,0.1c-0.3,0.1,-0.6,0.1,-1,0.1c-0.5,0,-0.8,0,-1.1,-0.1c-0.3,0,-0.5,0,-0.7,-0.1c-0.1,-0.1,-0.2,-0.1,-0.3,-0.2c-0.1,-0.1,-0.1,-0.2,-0.1,-0.3l0,-17.1l-5.3,0c-0.1,0,-0.2,0,-0.3,-0.1c-0.1,-0.1,-0.1,-0.2,-0.2,-0.3c0,-0.1,-0.1,-0.3,-0.1,-0.5c0,-0.3,-0.1,-0.5,-0.1,-0.8c0,-0.4,0.1,-0.6,0.1,-0.9c0,-0.2,0.1,-0.4,0.1,-0.5c0.1,-0.2,0.1,-0.3,0.2,-0.3c0.1,-0.1,0.2,-0.1,0.3,-0.1Zm51.3,-0.1c0.7,0,1.2,0,1.6,0c0.3,0,0.6,0.1,0.8,0.1c0.3,0.1,0.4,0.2,0.5,0.3c0.1,0.1,0.2,0.3,0.2,0.5l6.6,18.8c0.1,0.4,0.2,0.7,0.2,0.9c0.1,0.2,0,0.4,-0.1,0.5c-0.1,0.1,-0.3,0.2,-0.6,0.2c-0.3,0.1,-0.8,0.1,-1.3,0.1c-0.6,0,-1,0,-1.3,0c-0.3,-0.1,-0.5,-0.1,-0.7,-0.1c-0.2,-0.1,-0.3,-0.2,-0.3,-0.2C827.1,101.1,827,101,827,100.8l-1.5,-4.2l-7.9,0l-1.4,4.1c0,0.1,0,0.3,-0.1,0.4c-0.1,0.1,-0.2,0.2,-0.4,0.2c-0.1,0.1,-0.3,0.1,-0.6,0.1c-0.3,0.1,-0.7,0.1,-1.2,0.1c-0.5,0,-0.9,0,-1.2,-0.1c-0.2,0,-0.4,-0.1,-0.5,-0.2C812,101.1,812,100.9,812,100.7c0.1,-0.3,0.2,-0.6,0.3,-1l6.5,-18.8c0.1,-0.1,0.2,-0.3,0.3,-0.4c0,-0.1,0.2,-0.2,0.4,-0.3c0.2,0,0.4,-0.1,0.8,-0.1c0.3,0,0.8,0,1.3,0ZM805,79.8c0.6,0,1.1,0.1,1.7,0.2c0.5,0.1,1,0.2,1.5,0.4c0.4,0.1,0.9,0.3,1.2,0.5c0.4,0.2,0.7,0.4,0.8,0.6c0.1,0.1,0.3,0.2,0.3,0.3c0.1,0.1,0.1,0.2,0.1,0.4c0.1,0.1,0.1,0.3,0.1,0.5c0,0.2,0,0.5,0,0.8c0,0.3,0,0.6,0,0.8c0,0.3,-0.1,0.5,-0.1,0.6c-0.1,0.2,-0.1,0.2,-0.2,0.3c-0.1,0.1,-0.2,0.1,-0.3,0.1c-0.1,0,-0.3,-0.1,-0.6,-0.3c-0.2,-0.2,-0.6,-0.4,-1,-0.6c-0.4,-0.2,-0.8,-0.5,-1.4,-0.6c-0.5,-0.2,-1.2,-0.3,-2,-0.3c-0.8,0,-1.5,0.1,-2.2,0.5c-0.7,0.3,-1.2,0.8,-1.7,1.4c-0.5,0.7,-0.8,1.5,-1.1,2.4c-0.2,0.9,-0.3,1.9,-0.3,3c0,1.3,0.1,2.4,0.4,3.3c0.2,0.9,0.6,1.6,1.1,2.2c0.4,0.6,1,1,1.7,1.3c0.7,0.3,1.4,0.5,2.2,0.5c0.8,0,1.5,-0.1,2,-0.3c0.6,-0.2,1.1,-0.4,1.5,-0.6c0.4,-0.2,0.7,-0.4,0.9,-0.6c0.3,-0.2,0.5,-0.2,0.6,-0.2c0.2,0,0.2,0,0.3,0c0.1,0.1,0.1,0.2,0.2,0.3c0,0.1,0,0.3,0.1,0.5c0,0.3,0,0.6,0,1c0,0.3,0,0.5,0,0.7c0,0.2,-0.1,0.3,-0.1,0.5c0,0.1,-0.1,0.2,-0.1,0.3c-0.1,0.1,-0.2,0.2,-0.3,0.4c-0.1,0.1,-0.3,0.2,-0.7,0.4c-0.3,0.2,-0.7,0.4,-1.2,0.6c-0.5,0.2,-1.1,0.3,-1.7,0.5c-0.7,0.1,-1.4,0.1,-2.1,0.1c-1.5,0,-2.8,-0.2,-4,-0.6c-1.1,-0.5,-2.1,-1.2,-2.9,-2.1c-0.9,-0.8,-1.5,-2,-1.9,-3.3c-0.5,-1.3,-0.7,-2.9,-0.7,-4.6c0,-1.8,0.3,-3.4,0.7,-4.8c0.5,-1.4,1.2,-2.6,2.1,-3.6c0.8,-0.9,1.9,-1.6,3.1,-2.1c1.2,-0.5,2.5,-0.8,4,-0.8Z" class="g2_1" />
<image preserveAspectRatio="none" x="654" y="59" width="239" height="72" xlink:href="img/1.png" />
<path fill-rule="evenodd" d="M39.6,69.5l0.7,0l0,-0.7l-0.7,0l0,0.7Z" class="g3_1" />
<path fill-rule="evenodd" d="M39.6,69.5l0.7,0l0,-0.7l-0.7,0l0,0.7Z" class="g3_1" />
<path fill-rule="evenodd" d="M40.3,69.5l427.1,0l0,-0.7l-427.1,0l0,0.7Z" class="g3_1" />
<path fill-rule="evenodd" d="M467.4,69.5l0.8,0l0,-0.7l-0.8,0l0,0.7Z" class="g3_1" />
<path fill-rule="evenodd" d="M468.2,69.5l198.4,0l0,-0.7l-198.4,0l0,0.7Z" class="g3_1" />
<path fill-rule="evenodd" d="M666.6,69.5l0.7,0l0,-0.7l-0.7,0l0,0.7Z" class="g3_1" />
<path fill-rule="evenodd" d="M667.3,69.5l226.5,0l0,-0.7l-226.5,0l0,0.7Z" class="g3_1" />
<path fill-rule="evenodd" d="M893.8,69.5l0.7,0l0,-0.7l-0.7,0l0,0.7Z" class="g3_1" />
<path fill-rule="evenodd" d="M893.8,69.5l0.7,0l0,-0.7l-0.7,0l0,0.7Z" class="g3_1" />
<path fill-rule="evenodd" d="M39.6,110.5l0.7,0l0,-41l-0.7,0l0,41Z" class="g3_1" />
<path fill-rule="evenodd" d="M467.4,110.5l0.8,0l0,-41l-0.8,0l0,41Z" class="g3_1" />
<path fill-rule="evenodd" d="M666.6,110.5l0.7,0l0,-41l-0.7,0l0,41Z" class="g3_1" />
<path fill-rule="evenodd" d="M893.8,110.5l0.7,0l0,-41l-0.7,0l0,41Z" class="g3_1" />
<path fill-rule="evenodd" d="M39.6,111.3l0.7,0l0,-0.7l-0.7,0l0,0.7Z" class="g3_1" />
<path fill-rule="evenodd" d="M467.4,111.3l0.8,0l0,-0.7l-0.8,0l0,0.7Z" class="g3_1" />
<path fill-rule="evenodd" d="M666.6,111.3l0.7,0l0,-0.7l-0.7,0l0,0.7Z" class="g3_1" />
<path fill-rule="evenodd" d="M667.3,111.3l125.1,0l0,-0.7l-125.1,0l0,0.7Z" class="g3_1" />
<path fill-rule="evenodd" d="M792.4,111.3l0.7,0l0,-0.7l-0.7,0l0,0.7Z" class="g3_1" />
<path fill-rule="evenodd" d="M793.1,111.3l100.7,0l0,-0.7l-100.7,0l0,0.7Z" class="g3_1" />
<path fill-rule="evenodd" d="M893.8,111.3l0.7,0l0,-0.7l-0.7,0l0,0.7Z" class="g3_1" />
<path fill-rule="evenodd" d="M39.6,148.7l0.7,0l0,-37.4l-0.7,0l0,37.4Z" class="g3_1" />
<path fill-rule="evenodd" d="M467.4,148.7l0.8,0l0,-37.4l-0.8,0l0,37.4Z" class="g3_1" />
<path fill-rule="evenodd" d="M666.6,148.7l0.7,0l0,-37.4l-0.7,0l0,37.4Z" class="g3_1" />
<path fill-rule="evenodd" d="M792.4,148.7l0.7,0l0,-37.4l-0.7,0l0,37.4Z" class="g3_1" />
<path fill-rule="evenodd" d="M893.8,148.7l0.7,0l0,-37.4l-0.7,0l0,37.4Z" class="g3_1" />
<path fill-rule="evenodd" d="M39.6,149.4l0.7,0l0,-0.7l-0.7,0l0,0.7Z" class="g3_1" />
<path fill-rule="evenodd" d="M40.3,149.4l427.1,0l0,-0.7l-427.1,0l0,0.7Z" class="g3_1" />
<path fill-rule="evenodd" d="M467.4,149.4l0.8,0l0,-0.7l-0.8,0l0,0.7Z" class="g3_1" />
<path fill-rule="evenodd" d="M468.2,149.4l198.4,0l0,-0.7l-198.4,0l0,0.7Z" class="g3_1" />
<path fill-rule="evenodd" d="M666.6,149.4l0.7,0l0,-0.7l-0.7,0l0,0.7Z" class="g3_1" />
<path fill-rule="evenodd" d="M667.3,149.4l125.1,0l0,-0.7l-125.1,0l0,0.7Z" class="g3_1" />
<path fill-rule="evenodd" d="M792.4,149.4l0.7,0l0,-0.7l-0.7,0l0,0.7Z" class="g3_1" />
<path fill-rule="evenodd" d="M793.1,149.4l100.7,0l0,-0.7l-100.7,0l0,0.7Z" class="g3_1" />
<path fill-rule="evenodd" d="M893.8,149.4l0.7,0l0,-0.7l-0.7,0l0,0.7Z" class="g3_1" />
<path fill-rule="evenodd" d="M39.6,168l0.7,0l0,-18.6l-0.7,0l0,18.6Z" class="g3_1" />
<path fill-rule="evenodd" d="M467.4,168l0.8,0l0,-18.6l-0.8,0l0,18.6Z" class="g3_1" />
<path fill-rule="evenodd" d="M666.6,168l0.7,0l0,-18.6l-0.7,0l0,18.6Z" class="g3_1" />
<path fill-rule="evenodd" d="M792.4,168l0.7,0l0,-18.6l-0.7,0l0,18.6Z" class="g3_1" />
<path fill-rule="evenodd" d="M893.8,168l0.7,0l0,-18.6l-0.7,0l0,18.6Z" class="g3_1" />
<path fill-rule="evenodd" d="M39.6,168.7l0.7,0l0,-0.7l-0.7,0l0,0.7Z" class="g3_1" />
<path fill-rule="evenodd" d="M40.3,168.7l131.3,0l0,-0.7L40.3,168l0,0.7Z" class="g3_1" />
<path fill-rule="evenodd" d="M171.6,168.7l0.8,0l0,-0.7l-0.8,0l0,0.7Z" class="g3_1" />
<path fill-rule="evenodd" d="M172.4,168.7l295,0l0,-0.7l-295,0l0,0.7Z" class="g3_1" />
<path fill-rule="evenodd" d="M467.4,168.7l0.8,0l0,-0.7l-0.8,0l0,0.7Z" class="g3_1" />
<path fill-rule="evenodd" d="M468.2,168.7l198.4,0l0,-0.7l-198.4,0l0,0.7Z" class="g3_1" />
<path fill-rule="evenodd" d="M666.6,168.7l0.7,0l0,-0.7l-0.7,0l0,0.7Z" class="g3_1" />
<path fill-rule="evenodd" d="M667.3,168.7l125.1,0l0,-0.7l-125.1,0l0,0.7Z" class="g3_1" />
<path fill-rule="evenodd" d="M792.4,168.7l0.7,0l0,-0.7l-0.7,0l0,0.7Z" class="g3_1" />
<path fill-rule="evenodd" d="M793.1,168.7l100.7,0l0,-0.7l-100.7,0l0,0.7Z" class="g3_1" />
<path fill-rule="evenodd" d="M893.8,168.7l0.7,0l0,-0.7l-0.7,0l0,0.7Z" class="g3_1" />
<path fill-rule="evenodd" d="M39.6,185.6l0.7,0l0,-16.9l-0.7,0l0,16.9Z" class="g3_1" />
<path fill-rule="evenodd" d="M171.6,185.6l0.8,0l0,-16.9l-0.8,0l0,16.9Z" class="g3_1" />
<path fill-rule="evenodd" d="M666.6,185.6l0.7,0l0,-16.9l-0.7,0l0,16.9Z" class="g3_1" />
<path fill-rule="evenodd" d="M792.4,185.6l0.7,0l0,-16.9l-0.7,0l0,16.9Z" class="g3_1" />
<path fill-rule="evenodd" d="M893.8,185.6l0.7,0l0,-16.9l-0.7,0l0,16.9Z" class="g3_1" />
<path fill-rule="evenodd" d="M39.6,186.3l0.7,0l0,-0.7l-0.7,0l0,0.7Z" class="g4_1" />
<path fill-rule="evenodd" d="M40.3,186.3l131.3,0l0,-0.7l-131.3,0l0,0.7Z" class="g4_1" />
<path fill-rule="evenodd" d="M171.6,186.3l0.8,0l0,-0.7l-0.8,0l0,0.7Z" class="g4_1" />
<path fill-rule="evenodd" d="M172.4,186.3l197.4,0l0,-0.7l-197.4,0l0,0.7Z" class="g4_1" />
<path fill-rule="evenodd" d="M369.9,186.3l0.7,0l0,-0.7l-0.7,0l0,0.7Z" class="g4_1" />
<path fill-rule="evenodd" d="M370.6,186.3l184.8,0l0,-0.7l-184.8,0l0,0.7Z" class="g4_1" />
<path fill-rule="evenodd" d="M555.4,186.3l0.8,0l0,-0.7l-0.8,0l0,0.7Z" class="g4_1" />
<path fill-rule="evenodd" d="M556.2,186.3l110.4,0l0,-0.7l-110.4,0l0,0.7Z" class="g4_1" />
<path fill-rule="evenodd" d="M666.6,186.3l0.7,0l0,-0.7l-0.7,0l0,0.7Z" class="g4_1" />
<path fill-rule="evenodd" d="M667.3,186.3l125.1,0l0,-0.7l-125.1,0l0,0.7Z" class="g4_1" />
<path fill-rule="evenodd" d="M792.4,186.3l0.7,0l0,-0.7l-0.7,0l0,0.7Z" class="g4_1" />
<path fill-rule="evenodd" d="M793.1,186.3l100.7,0l0,-0.7l-100.7,0l0,0.7Z" class="g4_1" />
<path fill-rule="evenodd" d="M893.8,186.3l0.7,0l0,-0.7l-0.7,0l0,0.7Z" class="g4_1" />
<path fill-rule="evenodd" d="M39.6,213.8l0.7,0l0,-27.5l-0.7,0l0,27.5Z" class="g3_1" />
<path fill-rule="evenodd" d="M369.9,213.8l0.7,0l0,-27.5l-0.7,0l0,27.5Z" class="g3_1" />
<path fill-rule="evenodd" d="M555.4,213.8l0.8,0l0,-27.5l-0.8,0l0,27.5Z" class="g3_1" />
<path fill-rule="evenodd" d="M666.6,213.8l0.7,0l0,-27.5l-0.7,0l0,27.5Z" class="g3_1" />
<path fill-rule="evenodd" d="M893.8,213.8l0.7,0l0,-27.5l-0.7,0l0,27.5Z" class="g3_1" />
<path fill-rule="evenodd" d="M39.6,214.5l0.7,0l0,-0.7l-0.7,0l0,0.7Z" class="g4_1" />
<path fill-rule="evenodd" d="M40.3,214.5l329.6,0l0,-0.7l-329.6,0l0,0.7Z" class="g4_1" />
<path fill-rule="evenodd" d="M369.9,214.5l0.7,0l0,-0.7l-0.7,0l0,0.7Z" class="g4_1" />
<path fill-rule="evenodd" d="M370.6,214.5l184.8,0l0,-0.7l-184.8,0l0,0.7Z" class="g4_1" />
<path fill-rule="evenodd" d="M555.4,214.5l0.8,0l0,-0.7l-0.8,0l0,0.7Z" class="g4_1" />
<path fill-rule="evenodd" d="M556.2,214.5l110.4,0l0,-0.7l-110.4,0l0,0.7Z" class="g4_1" />
<path fill-rule="evenodd" d="M666.6,214.5l0.7,0l0,-0.7l-0.7,0l0,0.7Z" class="g4_1" />
<path fill-rule="evenodd" d="M667.3,214.5l226.5,0l0,-0.7l-226.5,0l0,0.7Z" class="g4_1" />
<path fill-rule="evenodd" d="M893.8,214.5l0.7,0l0,-0.7l-0.7,0l0,0.7Z" class="g4_1" />
<path fill-rule="evenodd" d="M39.6,231.4l0.7,0l0,-16.9l-0.7,0l0,16.9Z" class="g3_1" />
<path fill-rule="evenodd" d="M369.9,231.4l0.7,0l0,-16.9l-0.7,0l0,16.9Z" class="g3_1" />
<path fill-rule="evenodd" d="M555.4,231.4l0.8,0l0,-16.9l-0.8,0l0,16.9Z" class="g3_1" />
<path fill-rule="evenodd" d="M666.6,231.4l0.7,0l0,-16.9l-0.7,0l0,16.9Z" class="g3_1" />
<path fill-rule="evenodd" d="M893.8,231.4l0.7,0l0,-16.9l-0.7,0l0,16.9Z" class="g3_1" />
<path fill-rule="evenodd" d="M40.3,262l164.5,0l0,-29.9l-164.5,0l0,29.9Z" class="g5_1" />
<path fill-rule="evenodd" d="M48.2,254.5l148.7,0l0,-14.9l-148.7,0l0,14.9Z" class="g5_1" />
<path fill-rule="evenodd" d="M205.5,262l96,0l0,-29.9l-96,0l0,29.9Z" class="g5_1" />
<path fill-rule="evenodd" d="M213.4,254.5l80.2,0l0,-14.9l-80.2,0l0,14.9Z" class="g5_1" />
<path fill-rule="evenodd" d="M302.2,262l42,0l0,-29.9l-42,0l0,29.9Z" class="g5_1" />
<path fill-rule="evenodd" d="M310.1,254.5l26.2,0l0,-14.9l-26.2,0l0,14.9Z" class="g5_1" />
<path fill-rule="evenodd" d="M344.9,262l41.8,0l0,-29.9l-41.8,0l0,29.9Z" class="g5_1" />
<path fill-rule="evenodd" d="M352.8,254.5l26,0l0,-14.9l-26,0l0,14.9Z" class="g5_1" />
<path fill-rule="evenodd" d="M387.5,262l41.9,0l0,-29.9l-41.9,0l0,29.9Z" class="g5_1" />
<path fill-rule="evenodd" d="M395.3,254.5l26.3,0l0,-14.9l-26.3,0l0,14.9Z" class="g5_1" />
<path fill-rule="evenodd" d="M430.2,262l42.4,0l0,-29.9l-42.4,0l0,29.9Z" class="g5_1" />
<path fill-rule="evenodd" d="M438.1,254.5l26.6,0l0,-14.9l-26.6,0l0,14.9Z" class="g5_1" />
<path fill-rule="evenodd" d="M473.3,262l41.8,0l0,-29.9l-41.8,0l0,29.9Z" class="g5_1" />
<g clip-path="url(#c0_1)">
<path fill-rule="evenodd" d="M481.2,247l26,0l0,-14.9l-26,0l0,14.9Z" class="g5_1" />
</g>
<path fill-rule="evenodd" d="M481.2,262l26,0l0,-15l-26,0l0,15Z" class="g5_1" />
<path fill-rule="evenodd" d="M515.8,262l377.8,0l0,-29.9l-377.8,0l0,29.9Z" class="g5_1" />
<path fill-rule="evenodd" d="M523.7,254.5l362,0l0,-14.9l-362,0l0,14.9Z" class="g5_1" />
<path fill-rule="evenodd" d="M39.6,232.1l0.7,0l0,-0.7l-0.7,0l0,0.7Z" class="g4_1" />
<path fill-rule="evenodd" d="M40.3,232.1l164.7,0l0,-0.7l-164.7,0l0,0.7Z" class="g4_1" />
<path fill-rule="evenodd" d="M205,232.1l0.7,0l0,-0.7l-0.7,0l0,0.7Z" class="g4_1" />
<path fill-rule="evenodd" d="M205.7,232.1l96,0l0,-0.7l-96,0l0,0.7Z" class="g4_1" />
<path fill-rule="evenodd" d="M301.7,232.1l0.7,0l0,-0.7l-0.7,0l0,0.7Z" class="g4_1" />
<path fill-rule="evenodd" d="M302.4,232.1l41.8,0l0,-0.7l-41.8,0l0,0.7Z" class="g4_1" />
<path fill-rule="evenodd" d="M344.2,232.1l0.7,0l0,-0.7l-0.7,0l0,0.7Z" class="g4_1" />
<path fill-rule="evenodd" d="M344.9,232.1l25,0l0,-0.7l-25,0l0,0.7Z" class="g4_1" />
<path fill-rule="evenodd" d="M369.9,232.1l0.7,0l0,-0.7l-0.7,0l0,0.7Z" class="g4_1" />
<path fill-rule="evenodd" d="M370.6,232.1l16.3,0l0,-0.7l-16.3,0l0,0.7Z" class="g4_1" />
<path fill-rule="evenodd" d="M386.9,232.1l0.7,0l0,-0.7l-0.7,0l0,0.7Z" class="g4_1" />
<path fill-rule="evenodd" d="M387.6,232.1l41.8,0l0,-0.7l-41.8,0l0,0.7Z" class="g4_1" />
<path fill-rule="evenodd" d="M429.4,232.1l0.8,0l0,-0.7l-0.8,0l0,0.7Z" class="g4_1" />
<path fill-rule="evenodd" d="M430.2,232.1l42.4,0l0,-0.7l-42.4,0l0,0.7Z" class="g4_1" />
<path fill-rule="evenodd" d="M472.6,232.1l0.7,0l0,-0.7l-0.7,0l0,0.7Z" class="g4_1" />
<path fill-rule="evenodd" d="M473.3,232.1l42,0l0,-0.7l-42,0l0,0.7Z" class="g4_1" />
<path fill-rule="evenodd" d="M515.3,232.1l0.7,0l0,-0.7l-0.7,0l0,0.7Z" class="g4_1" />
<path fill-rule="evenodd" d="M516,232.1l39.4,0l0,-0.7l-39.4,0l0,0.7Z" class="g4_1" />
<path fill-rule="evenodd" d="M555.4,232.1l0.8,0l0,-0.7l-0.8,0l0,0.7Z" class="g4_1" />
<path fill-rule="evenodd" d="M556.2,232.1l110.4,0l0,-0.7l-110.4,0l0,0.7Z" class="g4_1" />
<path fill-rule="evenodd" d="M666.6,232.1l0.7,0l0,-0.7l-0.7,0l0,0.7Z" class="g4_1" />
<path fill-rule="evenodd" d="M667.3,232.1l226.5,0l0,-0.7l-226.5,0l0,0.7Z" class="g4_1" />
<path fill-rule="evenodd" d="M893.8,232.1l0.7,0l0,-0.7l-0.7,0l0,0.7Z" class="g4_1" />
<path fill-rule="evenodd" d="M39.6,262l0.7,0l0,-29.9l-0.7,0l0,29.9Z" class="g4_1" />
<path fill-rule="evenodd" d="M205,262l0.7,0l0,-29.9l-0.7,0l0,29.9Z" class="g4_1" />
<path fill-rule="evenodd" d="M301.7,262l0.7,0l0,-29.9l-0.7,0l0,29.9Z" class="g4_1" />
<path fill-rule="evenodd" d="M344.2,262l0.7,0l0,-29.9l-0.7,0l0,29.9Z" class="g4_1" />
<path fill-rule="evenodd" d="M386.9,262l0.7,0l0,-29.9l-0.7,0l0,29.9Z" class="g4_1" />
<path fill-rule="evenodd" d="M429.4,262l0.8,0l0,-29.9l-0.8,0l0,29.9Z" class="g4_1" />
<path fill-rule="evenodd" d="M472.6,262l0.7,0l0,-29.9l-0.7,0l0,29.9Z" class="g4_1" />
<path fill-rule="evenodd" d="M515.3,262l0.7,0l0,-29.9l-0.7,0l0,29.9Z" class="g4_1" />
<path fill-rule="evenodd" d="M893.8,262l0.7,0l0,-29.9l-0.7,0l0,29.9Z" class="g4_1" />
<path fill-rule="evenodd" d="M39.6,262.7l0.7,0l0,-0.7l-0.7,0l0,0.7Z" class="g4_1" />
<path fill-rule="evenodd" d="M40.3,262.7l164.7,0l0,-0.7L40.3,262l0,0.7Z" class="g4_1" />
<path fill-rule="evenodd" d="M205,262.7l0.7,0l0,-0.7l-0.7,0l0,0.7Z" class="g4_1" />
<path fill-rule="evenodd" d="M205.7,262.7l96,0l0,-0.7l-96,0l0,0.7Z" class="g4_1" />
<path fill-rule="evenodd" d="M301.7,262.7l0.7,0l0,-0.7l-0.7,0l0,0.7Z" class="g4_1" />
<path fill-rule="evenodd" d="M302.4,262.7l41.8,0l0,-0.7l-41.8,0l0,0.7Z" class="g4_1" />
<path fill-rule="evenodd" d="M344.2,262.7l0.7,0l0,-0.7l-0.7,0l0,0.7Z" class="g4_1" />
<path fill-rule="evenodd" d="M344.9,262.7l42,0l0,-0.7l-42,0l0,0.7Z" class="g4_1" />
<path fill-rule="evenodd" d="M386.9,262.7l0.7,0l0,-0.7l-0.7,0l0,0.7Z" class="g4_1" />
<path fill-rule="evenodd" d="M387.6,262.7l41.8,0l0,-0.7l-41.8,0l0,0.7Z" class="g4_1" />
<path fill-rule="evenodd" d="M429.4,262.7l0.8,0l0,-0.7l-0.8,0l0,0.7Z" class="g4_1" />
<path fill-rule="evenodd" d="M430.2,262.7l42.4,0l0,-0.7l-42.4,0l0,0.7Z" class="g4_1" />
<path fill-rule="evenodd" d="M472.6,262.7l0.7,0l0,-0.7l-0.7,0l0,0.7Z" class="g4_1" />
<path fill-rule="evenodd" d="M473.3,262.7l42,0l0,-0.7l-42,0l0,0.7Z" class="g4_1" />
<path fill-rule="evenodd" d="M515.3,262.7l0.7,0l0,-0.7l-0.7,0l0,0.7Z" class="g4_1" />
<path fill-rule="evenodd" d="M516,262.7l377.8,0l0,-0.7L516,262l0,0.7Z" class="g4_1" />
<path fill-rule="evenodd" d="M893.8,262.7l0.7,0l0,-0.7l-0.7,0l0,0.7Z" class="g4_1" />
<path fill-rule="evenodd" d="M39.6,300l0.7,0l0,-37.3l-0.7,0l0,37.3Z" class="g4_1" />
<path fill-rule="evenodd" d="M205,300l0.7,0l0,-37.3l-0.7,0l0,37.3Z" class="g4_1" />
<path fill-rule="evenodd" d="M301.7,300l0.7,0l0,-37.3l-0.7,0l0,37.3Z" class="g4_1" />
<path fill-rule="evenodd" d="M344.2,300l0.7,0l0,-37.3l-0.7,0l0,37.3Z" class="g4_1" />
<path fill-rule="evenodd" d="M386.9,300l0.7,0l0,-37.3l-0.7,0l0,37.3Z" class="g4_1" />
<path fill-rule="evenodd" d="M429.4,300l0.8,0l0,-37.3l-0.8,0l0,37.3Z" class="g4_1" />
<path fill-rule="evenodd" d="M472.6,300l0.7,0l0,-37.3l-0.7,0l0,37.3Z" class="g4_1" />
<path fill-rule="evenodd" d="M515.3,300l0.7,0l0,-37.3l-0.7,0l0,37.3Z" class="g4_1" />
<path fill-rule="evenodd" d="M893.8,300l0.7,0l0,-37.3l-0.7,0l0,37.3Z" class="g4_1" />
<path fill-rule="evenodd" d="M39.6,300.7l0.7,0l0,-0.7l-0.7,0l0,0.7Z" class="g4_1" />
<path fill-rule="evenodd" d="M40.3,300.7l164.7,0l0,-0.7L40.3,300l0,0.7Z" class="g4_1" />
<path fill-rule="evenodd" d="M205,300.7l0.7,0l0,-0.7l-0.7,0l0,0.7Z" class="g4_1" />
<path fill-rule="evenodd" d="M205.7,300.7l96,0l0,-0.7l-96,0l0,0.7Z" class="g4_1" />
<path fill-rule="evenodd" d="M301.7,300.7l0.7,0l0,-0.7l-0.7,0l0,0.7Z" class="g4_1" />
<path fill-rule="evenodd" d="M302.4,300.7l41.8,0l0,-0.7l-41.8,0l0,0.7Z" class="g4_1" />
<path fill-rule="evenodd" d="M344.2,300.7l0.7,0l0,-0.7l-0.7,0l0,0.7Z" class="g4_1" />
<path fill-rule="evenodd" d="M344.9,300.7l42,0l0,-0.7l-42,0l0,0.7Z" class="g4_1" />
<path fill-rule="evenodd" d="M386.9,300.7l0.7,0l0,-0.7l-0.7,0l0,0.7Z" class="g4_1" />
<path fill-rule="evenodd" d="M387.6,300.7l41.8,0l0,-0.7l-41.8,0l0,0.7Z" class="g4_1" />
<path fill-rule="evenodd" d="M429.4,300.7l0.8,0l0,-0.7l-0.8,0l0,0.7Z" class="g4_1" />
<path fill-rule="evenodd" d="M430.2,300.7l42.4,0l0,-0.7l-42.4,0l0,0.7Z" class="g4_1" />
<path fill-rule="evenodd" d="M472.6,300.7l0.7,0l0,-0.7l-0.7,0l0,0.7Z" class="g4_1" />
<path fill-rule="evenodd" d="M473.3,300.7l42,0l0,-0.7l-42,0l0,0.7Z" class="g4_1" />
<path fill-rule="evenodd" d="M515.3,300.7l0.7,0l0,-0.7l-0.7,0l0,0.7Z" class="g4_1" />
<path fill-rule="evenodd" d="M516,300.7l377.8,0l0,-0.7L516,300l0,0.7Z" class="g4_1" />
<path fill-rule="evenodd" d="M893.8,300.7l0.7,0l0,-0.7l-0.7,0l0,0.7Z" class="g4_1" />
<path fill-rule="evenodd" d="M39.6,338.1l0.7,0l0,-37.4l-0.7,0l0,37.4Z" class="g4_1" />
<path fill-rule="evenodd" d="M205,338.1l0.7,0l0,-37.4l-0.7,0l0,37.4Z" class="g4_1" />
<path fill-rule="evenodd" d="M301.7,338.1l0.7,0l0,-37.4l-0.7,0l0,37.4Z" class="g4_1" />
<path fill-rule="evenodd" d="M344.2,338.1l0.7,0l0,-37.4l-0.7,0l0,37.4Z" class="g4_1" />
<path fill-rule="evenodd" d="M386.9,338.1l0.7,0l0,-37.4l-0.7,0l0,37.4Z" class="g4_1" />
<path fill-rule="evenodd" d="M429.4,338.1l0.8,0l0,-37.4l-0.8,0l0,37.4Z" class="g4_1" />
<path fill-rule="evenodd" d="M472.6,338.1l0.7,0l0,-37.4l-0.7,0l0,37.4Z" class="g4_1" />
<path fill-rule="evenodd" d="M515.3,338.1l0.7,0l0,-37.4l-0.7,0l0,37.4Z" class="g4_1" />
<path fill-rule="evenodd" d="M893.8,338.1l0.7,0l0,-37.4l-0.7,0l0,37.4Z" class="g4_1" />
<path fill-rule="evenodd" d="M39.6,338.8l0.7,0l0,-0.7l-0.7,0l0,0.7Z" class="g4_1" />
<path fill-rule="evenodd" d="M40.3,338.8l164.7,0l0,-0.7l-164.7,0l0,0.7Z" class="g4_1" />
<path fill-rule="evenodd" d="M205,338.8l0.7,0l0,-0.7l-0.7,0l0,0.7Z" class="g4_1" />
<path fill-rule="evenodd" d="M205.7,338.8l96,0l0,-0.7l-96,0l0,0.7Z" class="g4_1" />
<path fill-rule="evenodd" d="M301.7,338.8l0.7,0l0,-0.7l-0.7,0l0,0.7Z" class="g4_1" />
<path fill-rule="evenodd" d="M302.4,338.8l41.8,0l0,-0.7l-41.8,0l0,0.7Z" class="g4_1" />
<path fill-rule="evenodd" d="M344.2,338.8l0.7,0l0,-0.7l-0.7,0l0,0.7Z" class="g4_1" />
<path fill-rule="evenodd" d="M344.9,338.8l42,0l0,-0.7l-42,0l0,0.7Z" class="g4_1" />
<path fill-rule="evenodd" d="M386.9,338.8l0.7,0l0,-0.7l-0.7,0l0,0.7Z" class="g4_1" />
<path fill-rule="evenodd" d="M387.6,338.8l41.8,0l0,-0.7l-41.8,0l0,0.7Z" class="g4_1" />
<path fill-rule="evenodd" d="M429.4,338.8l0.8,0l0,-0.7l-0.8,0l0,0.7Z" class="g4_1" />
<path fill-rule="evenodd" d="M430.2,338.8l42.4,0l0,-0.7l-42.4,0l0,0.7Z" class="g4_1" />
<path fill-rule="evenodd" d="M472.6,338.8l0.7,0l0,-0.7l-0.7,0l0,0.7Z" class="g4_1" />
<path fill-rule="evenodd" d="M473.3,338.8l42,0l0,-0.7l-42,0l0,0.7Z" class="g4_1" />
<path fill-rule="evenodd" d="M515.3,338.8l0.7,0l0,-0.7l-0.7,0l0,0.7Z" class="g4_1" />
<path fill-rule="evenodd" d="M516,338.8l377.8,0l0,-0.7l-377.8,0l0,0.7Z" class="g4_1" />
<path fill-rule="evenodd" d="M893.8,338.8l0.7,0l0,-0.7l-0.7,0l0,0.7Z" class="g4_1" />
<path fill-rule="evenodd" d="M39.6,376l0.7,0l0,-37.2l-0.7,0l0,37.2Z" class="g4_1" />
<path fill-rule="evenodd" d="M205,376l0.7,0l0,-37.2l-0.7,0l0,37.2Z" class="g4_1" />
<path fill-rule="evenodd" d="M301.7,376l0.7,0l0,-37.2l-0.7,0l0,37.2Z" class="g4_1" />
<path fill-rule="evenodd" d="M344.2,376l0.7,0l0,-37.2l-0.7,0l0,37.2Z" class="g4_1" />
<path fill-rule="evenodd" d="M386.9,376l0.7,0l0,-37.2l-0.7,0l0,37.2Z" class="g4_1" />
<path fill-rule="evenodd" d="M429.4,376l0.8,0l0,-37.2l-0.8,0l0,37.2Z" class="g4_1" />
<path fill-rule="evenodd" d="M472.6,376l0.7,0l0,-37.2l-0.7,0l0,37.2Z" class="g4_1" />
<path fill-rule="evenodd" d="M515.3,376l0.7,0l0,-37.2l-0.7,0l0,37.2Z" class="g4_1" />
<path fill-rule="evenodd" d="M893.8,376l0.7,0l0,-37.2l-0.7,0l0,37.2Z" class="g4_1" />
<path fill-rule="evenodd" d="M39.6,376.8l0.7,0l0,-0.8l-0.7,0l0,0.8Z" class="g4_1" />
<path fill-rule="evenodd" d="M40.3,376.8l164.7,0l0,-0.8L40.3,376l0,0.8Z" class="g4_1" />
<path fill-rule="evenodd" d="M205,376.8l0.7,0l0,-0.8l-0.7,0l0,0.8Z" class="g4_1" />
<path fill-rule="evenodd" d="M205.7,376.8l96,0l0,-0.8l-96,0l0,0.8Z" class="g4_1" />
<path fill-rule="evenodd" d="M301.7,376.8l0.7,0l0,-0.8l-0.7,0l0,0.8Z" class="g4_1" />
<path fill-rule="evenodd" d="M302.4,376.8l41.8,0l0,-0.8l-41.8,0l0,0.8Z" class="g4_1" />
<path fill-rule="evenodd" d="M344.2,376.8l0.7,0l0,-0.8l-0.7,0l0,0.8Z" class="g4_1" />
<path fill-rule="evenodd" d="M344.9,376.8l42,0l0,-0.8l-42,0l0,0.8Z" class="g4_1" />
<path fill-rule="evenodd" d="M386.9,376.8l0.7,0l0,-0.8l-0.7,0l0,0.8Z" class="g4_1" />
<path fill-rule="evenodd" d="M387.6,376.8l41.8,0l0,-0.8l-41.8,0l0,0.8Z" class="g4_1" />
<path fill-rule="evenodd" d="M429.4,376.8l0.8,0l0,-0.8l-0.8,0l0,0.8Z" class="g4_1" />
<path fill-rule="evenodd" d="M430.2,376.8l42.4,0l0,-0.8l-42.4,0l0,0.8Z" class="g4_1" />
<path fill-rule="evenodd" d="M472.6,376.8l0.7,0l0,-0.8l-0.7,0l0,0.8Z" class="g4_1" />
<path fill-rule="evenodd" d="M473.3,376.8l42,0l0,-0.8l-42,0l0,0.8Z" class="g4_1" />
<path fill-rule="evenodd" d="M515.3,376.8l0.7,0l0,-0.8l-0.7,0l0,0.8Z" class="g4_1" />
<path fill-rule="evenodd" d="M516,376.8l377.8,0l0,-0.8L516,376l0,0.8Z" class="g4_1" />
<path fill-rule="evenodd" d="M893.8,376.8l0.7,0l0,-0.8l-0.7,0l0,0.8Z" class="g4_1" />
<path fill-rule="evenodd" d="M39.6,414.2l0.7,0l0,-37.4l-0.7,0l0,37.4Z" class="g4_1" />
<path fill-rule="evenodd" d="M205,414.2l0.7,0l0,-37.4l-0.7,0l0,37.4Z" class="g4_1" />
<path fill-rule="evenodd" d="M301.7,414.2l0.7,0l0,-37.4l-0.7,0l0,37.4Z" class="g4_1" />
<path fill-rule="evenodd" d="M344.2,414.2l0.7,0l0,-37.4l-0.7,0l0,37.4Z" class="g4_1" />
<path fill-rule="evenodd" d="M386.9,414.2l0.7,0l0,-37.4l-0.7,0l0,37.4Z" class="g4_1" />
<path fill-rule="evenodd" d="M429.4,414.2l0.8,0l0,-37.4l-0.8,0l0,37.4Z" class="g4_1" />
<path fill-rule="evenodd" d="M472.6,414.2l0.7,0l0,-37.4l-0.7,0l0,37.4Z" class="g4_1" />
<path fill-rule="evenodd" d="M515.3,414.2l0.7,0l0,-37.4l-0.7,0l0,37.4Z" class="g4_1" />
<path fill-rule="evenodd" d="M893.8,414.2l0.7,0l0,-37.4l-0.7,0l0,37.4Z" class="g4_1" />
<path fill-rule="evenodd" d="M39.6,415l0.7,0l0,-0.8l-0.7,0l0,0.8Z" class="g4_1" />
<path fill-rule="evenodd" d="M40.3,415L205,415l0,-0.8l-164.7,0l0,0.8Z" class="g4_1" />
<path fill-rule="evenodd" d="M205,415l0.7,0l0,-0.8l-0.7,0l0,0.8Z" class="g4_1" />
<path fill-rule="evenodd" d="M205.7,415l96,0l0,-0.8l-96,0l0,0.8Z" class="g4_1" />
<path fill-rule="evenodd" d="M301.7,415l0.7,0l0,-0.8l-0.7,0l0,0.8Z" class="g4_1" />
<path fill-rule="evenodd" d="M302.4,415l41.8,0l0,-0.8l-41.8,0l0,0.8Z" class="g4_1" />
<path fill-rule="evenodd" d="M344.2,415l0.7,0l0,-0.8l-0.7,0l0,0.8Z" class="g4_1" />
<path fill-rule="evenodd" d="M344.9,415l42,0l0,-0.8l-42,0l0,0.8Z" class="g4_1" />
<path fill-rule="evenodd" d="M386.9,415l0.7,0l0,-0.8l-0.7,0l0,0.8Z" class="g4_1" />
<path fill-rule="evenodd" d="M387.6,415l41.8,0l0,-0.8l-41.8,0l0,0.8Z" class="g4_1" />
<path fill-rule="evenodd" d="M429.4,415l0.8,0l0,-0.8l-0.8,0l0,0.8Z" class="g4_1" />
<path fill-rule="evenodd" d="M430.2,415l42.4,0l0,-0.8l-42.4,0l0,0.8Z" class="g4_1" />
<path fill-rule="evenodd" d="M472.6,415l0.7,0l0,-0.8l-0.7,0l0,0.8Z" class="g4_1" />
<path fill-rule="evenodd" d="M473.3,415l42,0l0,-0.8l-42,0l0,0.8Z" class="g4_1" />
<path fill-rule="evenodd" d="M515.3,415l0.7,0l0,-0.8l-0.7,0l0,0.8Z" class="g4_1" />
<path fill-rule="evenodd" d="M516,415l377.8,0l0,-0.8l-377.8,0l0,0.8Z" class="g4_1" />
<path fill-rule="evenodd" d="M893.8,415l0.7,0l0,-0.8l-0.7,0l0,0.8Z" class="g4_1" />
<path fill-rule="evenodd" d="M39.6,452.4l0.7,0l0,-37.4l-0.7,0l0,37.4Z" class="g4_1" />
<path fill-rule="evenodd" d="M205,452.4l0.7,0l0,-37.4l-0.7,0l0,37.4Z" class="g4_1" />
<path fill-rule="evenodd" d="M301.7,452.4l0.7,0l0,-37.4l-0.7,0l0,37.4Z" class="g4_1" />
<path fill-rule="evenodd" d="M344.2,452.4l0.7,0l0,-37.4l-0.7,0l0,37.4Z" class="g4_1" />
<path fill-rule="evenodd" d="M386.9,452.4l0.7,0l0,-37.4l-0.7,0l0,37.4Z" class="g4_1" />
<path fill-rule="evenodd" d="M429.4,452.4l0.8,0l0,-37.4l-0.8,0l0,37.4Z" class="g4_1" />
<path fill-rule="evenodd" d="M472.6,452.4l0.7,0l0,-37.4l-0.7,0l0,37.4Z" class="g4_1" />
<path fill-rule="evenodd" d="M515.3,452.4l0.7,0L516,415l-0.7,0l0,37.4Z" class="g4_1" />
<path fill-rule="evenodd" d="M893.8,452.4l0.7,0l0,-37.4l-0.7,0l0,37.4Z" class="g4_1" />
<path fill-rule="evenodd" d="M39.6,453.1l0.7,0l0,-0.7l-0.7,0l0,0.7Z" class="g4_1" />
<path fill-rule="evenodd" d="M40.3,453.1l164.7,0l0,-0.7l-164.7,0l0,0.7Z" class="g4_1" />
<path fill-rule="evenodd" d="M205,453.1l0.7,0l0,-0.7l-0.7,0l0,0.7Z" class="g4_1" />
<path fill-rule="evenodd" d="M205.7,453.1l96,0l0,-0.7l-96,0l0,0.7Z" class="g4_1" />
<path fill-rule="evenodd" d="M301.7,453.1l0.7,0l0,-0.7l-0.7,0l0,0.7Z" class="g4_1" />
<path fill-rule="evenodd" d="M302.4,453.1l41.8,0l0,-0.7l-41.8,0l0,0.7Z" class="g4_1" />
<path fill-rule="evenodd" d="M344.2,453.1l0.7,0l0,-0.7l-0.7,0l0,0.7Z" class="g4_1" />
<path fill-rule="evenodd" d="M344.9,453.1l42,0l0,-0.7l-42,0l0,0.7Z" class="g4_1" />
<path fill-rule="evenodd" d="M386.9,453.1l0.7,0l0,-0.7l-0.7,0l0,0.7Z" class="g4_1" />
<path fill-rule="evenodd" d="M387.6,453.1l41.8,0l0,-0.7l-41.8,0l0,0.7Z" class="g4_1" />
<path fill-rule="evenodd" d="M429.4,453.1l0.8,0l0,-0.7l-0.8,0l0,0.7Z" class="g4_1" />
<path fill-rule="evenodd" d="M430.2,453.1l42.4,0l0,-0.7l-42.4,0l0,0.7Z" class="g4_1" />
<path fill-rule="evenodd" d="M472.6,453.1l0.7,0l0,-0.7l-0.7,0l0,0.7Z" class="g4_1" />
<path fill-rule="evenodd" d="M473.3,453.1l42,0l0,-0.7l-42,0l0,0.7Z" class="g4_1" />
<path fill-rule="evenodd" d="M515.3,453.1l0.7,0l0,-0.7l-0.7,0l0,0.7Z" class="g4_1" />
<path fill-rule="evenodd" d="M516,453.1l377.8,0l0,-0.7l-377.8,0l0,0.7Z" class="g4_1" />
<path fill-rule="evenodd" d="M893.8,453.1l0.7,0l0,-0.7l-0.7,0l0,0.7Z" class="g4_1" />
<path fill-rule="evenodd" d="M39.6,490.3l0.7,0l0,-37.2l-0.7,0l0,37.2Z" class="g4_1" />
<path fill-rule="evenodd" d="M205,490.3l0.7,0l0,-37.2l-0.7,0l0,37.2Z" class="g4_1" />
<path fill-rule="evenodd" d="M301.7,490.3l0.7,0l0,-37.2l-0.7,0l0,37.2Z" class="g4_1" />
<path fill-rule="evenodd" d="M344.2,490.3l0.7,0l0,-37.2l-0.7,0l0,37.2Z" class="g4_1" />
<path fill-rule="evenodd" d="M386.9,490.3l0.7,0l0,-37.2l-0.7,0l0,37.2Z" class="g4_1" />
<path fill-rule="evenodd" d="M429.4,490.3l0.8,0l0,-37.2l-0.8,0l0,37.2Z" class="g4_1" />
<path fill-rule="evenodd" d="M472.6,490.3l0.7,0l0,-37.2l-0.7,0l0,37.2Z" class="g4_1" />
<path fill-rule="evenodd" d="M515.3,490.3l0.7,0l0,-37.2l-0.7,0l0,37.2Z" class="g4_1" />
<path fill-rule="evenodd" d="M893.8,490.3l0.7,0l0,-37.2l-0.7,0l0,37.2Z" class="g4_1" />
<path fill-rule="evenodd" d="M39.6,491l0.7,0l0,-0.7l-0.7,0l0,0.7Z" class="g4_1" />
<path fill-rule="evenodd" d="M40.3,491L205,491l0,-0.7l-164.7,0l0,0.7Z" class="g4_1" />
<path fill-rule="evenodd" d="M205,491l0.7,0l0,-0.7l-0.7,0l0,0.7Z" class="g4_1" />
<path fill-rule="evenodd" d="M205.7,491l96,0l0,-0.7l-96,0l0,0.7Z" class="g4_1" />
<path fill-rule="evenodd" d="M301.7,491l0.7,0l0,-0.7l-0.7,0l0,0.7Z" class="g4_1" />
<path fill-rule="evenodd" d="M302.4,491l41.8,0l0,-0.7l-41.8,0l0,0.7Z" class="g4_1" />
<path fill-rule="evenodd" d="M344.2,491l0.7,0l0,-0.7l-0.7,0l0,0.7Z" class="g4_1" />
<path fill-rule="evenodd" d="M344.9,491l42,0l0,-0.7l-42,0l0,0.7Z" class="g4_1" />
<path fill-rule="evenodd" d="M386.9,491l0.7,0l0,-0.7l-0.7,0l0,0.7Z" class="g4_1" />
<path fill-rule="evenodd" d="M387.6,491l41.8,0l0,-0.7l-41.8,0l0,0.7Z" class="g4_1" />
<path fill-rule="evenodd" d="M429.4,491l0.8,0l0,-0.7l-0.8,0l0,0.7Z" class="g4_1" />
<path fill-rule="evenodd" d="M430.2,491l42.4,0l0,-0.7l-42.4,0l0,0.7Z" class="g4_1" />
<path fill-rule="evenodd" d="M472.6,491l0.7,0l0,-0.7l-0.7,0l0,0.7Z" class="g4_1" />
<path fill-rule="evenodd" d="M473.3,491l42,0l0,-0.7l-42,0l0,0.7Z" class="g4_1" />
<path fill-rule="evenodd" d="M515.3,491l0.7,0l0,-0.7l-0.7,0l0,0.7Z" class="g4_1" />
<path fill-rule="evenodd" d="M516,491l377.8,0l0,-0.7l-377.8,0l0,0.7Z" class="g4_1" />
<path fill-rule="evenodd" d="M893.8,491l0.7,0l0,-0.7l-0.7,0l0,0.7Z" class="g4_1" />
<path fill-rule="evenodd" d="M39.6,528.4l0.7,0l0,-37.4l-0.7,0l0,37.4Z" class="g4_1" />
<path fill-rule="evenodd" d="M205,528.4l0.7,0l0,-37.4l-0.7,0l0,37.4Z" class="g4_1" />
<path fill-rule="evenodd" d="M301.7,528.4l0.7,0l0,-37.4l-0.7,0l0,37.4Z" class="g4_1" />
<path fill-rule="evenodd" d="M344.2,528.4l0.7,0l0,-37.4l-0.7,0l0,37.4Z" class="g4_1" />
<path fill-rule="evenodd" d="M386.9,528.4l0.7,0l0,-37.4l-0.7,0l0,37.4Z" class="g4_1" />
<path fill-rule="evenodd" d="M429.4,528.4l0.8,0l0,-37.4l-0.8,0l0,37.4Z" class="g4_1" />
<path fill-rule="evenodd" d="M472.6,528.4l0.7,0l0,-37.4l-0.7,0l0,37.4Z" class="g4_1" />
<path fill-rule="evenodd" d="M515.3,528.4l0.7,0L516,491l-0.7,0l0,37.4Z" class="g4_1" />
<path fill-rule="evenodd" d="M893.8,528.4l0.7,0l0,-37.4l-0.7,0l0,37.4Z" class="g4_1" />
<path fill-rule="evenodd" d="M39.6,529.2l0.7,0l0,-0.8l-0.7,0l0,0.8Z" class="g4_1" />
<path fill-rule="evenodd" d="M40.3,529.2l164.7,0l0,-0.8l-164.7,0l0,0.8Z" class="g4_1" />
<path fill-rule="evenodd" d="M205,529.2l0.7,0l0,-0.8l-0.7,0l0,0.8Z" class="g4_1" />
<path fill-rule="evenodd" d="M205.7,529.2l96,0l0,-0.8l-96,0l0,0.8Z" class="g4_1" />
<path fill-rule="evenodd" d="M301.7,529.2l0.7,0l0,-0.8l-0.7,0l0,0.8Z" class="g4_1" />
<path fill-rule="evenodd" d="M302.4,529.2l41.8,0l0,-0.8l-41.8,0l0,0.8Z" class="g4_1" />
<path fill-rule="evenodd" d="M344.2,529.2l0.7,0l0,-0.8l-0.7,0l0,0.8Z" class="g4_1" />
<path fill-rule="evenodd" d="M344.9,529.2l42,0l0,-0.8l-42,0l0,0.8Z" class="g4_1" />
<path fill-rule="evenodd" d="M386.9,529.2l0.7,0l0,-0.8l-0.7,0l0,0.8Z" class="g4_1" />
<path fill-rule="evenodd" d="M387.6,529.2l41.8,0l0,-0.8l-41.8,0l0,0.8Z" class="g4_1" />
<path fill-rule="evenodd" d="M429.4,529.2l0.8,0l0,-0.8l-0.8,0l0,0.8Z" class="g4_1" />
<path fill-rule="evenodd" d="M430.2,529.2l42.4,0l0,-0.8l-42.4,0l0,0.8Z" class="g4_1" />
<path fill-rule="evenodd" d="M472.6,529.2l0.7,0l0,-0.8l-0.7,0l0,0.8Z" class="g4_1" />
<path fill-rule="evenodd" d="M473.3,529.2l42,0l0,-0.8l-42,0l0,0.8Z" class="g4_1" />
<path fill-rule="evenodd" d="M515.3,529.2l0.7,0l0,-0.8l-0.7,0l0,0.8Z" class="g4_1" />
<path fill-rule="evenodd" d="M516,529.2l377.8,0l0,-0.8l-377.8,0l0,0.8Z" class="g4_1" />
<path fill-rule="evenodd" d="M893.8,529.2l0.7,0l0,-0.8l-0.7,0l0,0.8Z" class="g4_1" />
<path fill-rule="evenodd" d="M39.6,566.6l0.7,0l0,-37.4l-0.7,0l0,37.4Z" class="g4_1" />
<path fill-rule="evenodd" d="M205,566.6l0.7,0l0,-37.4l-0.7,0l0,37.4Z" class="g4_1" />
<path fill-rule="evenodd" d="M301.7,566.6l0.7,0l0,-37.4l-0.7,0l0,37.4Z" class="g4_1" />
<path fill-rule="evenodd" d="M344.2,566.6l0.7,0l0,-37.4l-0.7,0l0,37.4Z" class="g4_1" />
<path fill-rule="evenodd" d="M386.9,566.6l0.7,0l0,-37.4l-0.7,0l0,37.4Z" class="g4_1" />
<path fill-rule="evenodd" d="M429.4,566.6l0.8,0l0,-37.4l-0.8,0l0,37.4Z" class="g4_1" />
<path fill-rule="evenodd" d="M472.6,566.6l0.7,0l0,-37.4l-0.7,0l0,37.4Z" class="g4_1" />
<path fill-rule="evenodd" d="M515.3,566.6l0.7,0l0,-37.4l-0.7,0l0,37.4Z" class="g4_1" />
<path fill-rule="evenodd" d="M893.8,566.6l0.7,0l0,-37.4l-0.7,0l0,37.4Z" class="g4_1" />
<path fill-rule="evenodd" d="M39.6,567.3l0.7,0l0,-0.7l-0.7,0l0,0.7Z" class="g4_1" />
<path fill-rule="evenodd" d="M40.3,567.3l164.7,0l0,-0.7l-164.7,0l0,0.7Z" class="g4_1" />
<path fill-rule="evenodd" d="M205,567.3l0.7,0l0,-0.7l-0.7,0l0,0.7Z" class="g4_1" />
<path fill-rule="evenodd" d="M205.7,567.3l96,0l0,-0.7l-96,0l0,0.7Z" class="g4_1" />
<path fill-rule="evenodd" d="M301.7,567.3l0.7,0l0,-0.7l-0.7,0l0,0.7Z" class="g4_1" />
<path fill-rule="evenodd" d="M302.4,567.3l41.8,0l0,-0.7l-41.8,0l0,0.7Z" class="g4_1" />
<path fill-rule="evenodd" d="M344.2,567.3l0.7,0l0,-0.7l-0.7,0l0,0.7Z" class="g4_1" />
<path fill-rule="evenodd" d="M344.9,567.3l42,0l0,-0.7l-42,0l0,0.7Z" class="g4_1" />
<path fill-rule="evenodd" d="M386.9,567.3l0.7,0l0,-0.7l-0.7,0l0,0.7Z" class="g4_1" />
<path fill-rule="evenodd" d="M387.6,567.3l41.8,0l0,-0.7l-41.8,0l0,0.7Z" class="g4_1" />
<path fill-rule="evenodd" d="M429.4,567.3l0.8,0l0,-0.7l-0.8,0l0,0.7Z" class="g4_1" />
<path fill-rule="evenodd" d="M430.2,567.3l42.4,0l0,-0.7l-42.4,0l0,0.7Z" class="g4_1" />
<path fill-rule="evenodd" d="M472.6,567.3l0.7,0l0,-0.7l-0.7,0l0,0.7Z" class="g4_1" />
<path fill-rule="evenodd" d="M473.3,567.3l42,0l0,-0.7l-42,0l0,0.7Z" class="g4_1" />
<path fill-rule="evenodd" d="M515.3,567.3l0.7,0l0,-0.7l-0.7,0l0,0.7Z" class="g4_1" />
<path fill-rule="evenodd" d="M516,567.3l377.8,0l0,-0.7l-377.8,0l0,0.7Z" class="g4_1" />
<path fill-rule="evenodd" d="M893.8,567.3l0.7,0l0,-0.7l-0.7,0l0,0.7Z" class="g4_1" />
<path fill-rule="evenodd" d="M39.6,604.5l0.7,0l0,-37.2l-0.7,0l0,37.2Z" class="g4_1" />
<path fill-rule="evenodd" d="M205,604.5l0.7,0l0,-37.2l-0.7,0l0,37.2Z" class="g4_1" />
<path fill-rule="evenodd" d="M301.7,604.5l0.7,0l0,-37.2l-0.7,0l0,37.2Z" class="g4_1" />
<path fill-rule="evenodd" d="M344.2,604.5l0.7,0l0,-37.2l-0.7,0l0,37.2Z" class="g4_1" />
<path fill-rule="evenodd" d="M386.9,604.5l0.7,0l0,-37.2l-0.7,0l0,37.2Z" class="g4_1" />
<path fill-rule="evenodd" d="M429.4,604.5l0.8,0l0,-37.2l-0.8,0l0,37.2Z" class="g4_1" />
<path fill-rule="evenodd" d="M472.6,604.5l0.7,0l0,-37.2l-0.7,0l0,37.2Z" class="g4_1" />
<path fill-rule="evenodd" d="M515.3,604.5l0.7,0l0,-37.2l-0.7,0l0,37.2Z" class="g4_1" />
<path fill-rule="evenodd" d="M893.8,604.5l0.7,0l0,-37.2l-0.7,0l0,37.2Z" class="g4_1" />
<path fill-rule="evenodd" d="M39.6,605.3l0.7,0l0,-0.8l-0.7,0l0,0.8Z" class="g4_1" />
<path fill-rule="evenodd" d="M40.3,605.3l164.7,0l0,-0.8l-164.7,0l0,0.8Z" class="g4_1" />
<path fill-rule="evenodd" d="M205,605.3l0.7,0l0,-0.8l-0.7,0l0,0.8Z" class="g4_1" />
<path fill-rule="evenodd" d="M205.7,605.3l96,0l0,-0.8l-96,0l0,0.8Z" class="g4_1" />
<path fill-rule="evenodd" d="M301.7,605.3l0.7,0l0,-0.8l-0.7,0l0,0.8Z" class="g4_1" />
<path fill-rule="evenodd" d="M302.4,605.3l41.8,0l0,-0.8l-41.8,0l0,0.8Z" class="g4_1" />
<path fill-rule="evenodd" d="M344.2,605.3l0.7,0l0,-0.8l-0.7,0l0,0.8Z" class="g4_1" />
<path fill-rule="evenodd" d="M344.9,605.3l42,0l0,-0.8l-42,0l0,0.8Z" class="g4_1" />
<path fill-rule="evenodd" d="M386.9,605.3l0.7,0l0,-0.8l-0.7,0l0,0.8Z" class="g4_1" />
<path fill-rule="evenodd" d="M387.6,605.3l41.8,0l0,-0.8l-41.8,0l0,0.8Z" class="g4_1" />
<path fill-rule="evenodd" d="M429.4,605.3l0.8,0l0,-0.8l-0.8,0l0,0.8Z" class="g4_1" />
<path fill-rule="evenodd" d="M430.2,605.3l42.4,0l0,-0.8l-42.4,0l0,0.8Z" class="g4_1" />
<path fill-rule="evenodd" d="M472.6,605.3l0.7,0l0,-0.8l-0.7,0l0,0.8Z" class="g4_1" />
<path fill-rule="evenodd" d="M473.3,605.3l42,0l0,-0.8l-42,0l0,0.8Z" class="g4_1" />
<path fill-rule="evenodd" d="M515.3,605.3l0.7,0l0,-0.8l-0.7,0l0,0.8Z" class="g4_1" />
<path fill-rule="evenodd" d="M516,605.3l377.8,0l0,-0.8l-377.8,0l0,0.8Z" class="g4_1" />
<path fill-rule="evenodd" d="M893.8,605.3l0.7,0l0,-0.8l-0.7,0l0,0.8Z" class="g4_1" />
<path fill-rule="evenodd" d="M39.6,642.7l0.7,0l0,-37.4l-0.7,0l0,37.4Z" class="g4_1" />
<path fill-rule="evenodd" d="M205,642.7l0.7,0l0,-37.4l-0.7,0l0,37.4Z" class="g4_1" />
<path fill-rule="evenodd" d="M301.7,642.7l0.7,0l0,-37.4l-0.7,0l0,37.4Z" class="g4_1" />
<path fill-rule="evenodd" d="M344.2,642.7l0.7,0l0,-37.4l-0.7,0l0,37.4Z" class="g4_1" />
<path fill-rule="evenodd" d="M386.9,642.7l0.7,0l0,-37.4l-0.7,0l0,37.4Z" class="g4_1" />
<path fill-rule="evenodd" d="M429.4,642.7l0.8,0l0,-37.4l-0.8,0l0,37.4Z" class="g4_1" />
<path fill-rule="evenodd" d="M472.6,642.7l0.7,0l0,-37.4l-0.7,0l0,37.4Z" class="g4_1" />
<path fill-rule="evenodd" d="M515.3,642.7l0.7,0l0,-37.4l-0.7,0l0,37.4Z" class="g4_1" />
<path fill-rule="evenodd" d="M893.8,642.7l0.7,0l0,-37.4l-0.7,0l0,37.4Z" class="g4_1" />
<path fill-rule="evenodd" d="M39.6,643.4l0.7,0l0,-0.7l-0.7,0l0,0.7Z" class="g4_1" />
<path fill-rule="evenodd" d="M40.3,643.4l164.7,0l0,-0.7l-164.7,0l0,0.7Z" class="g4_1" />
<path fill-rule="evenodd" d="M205,643.4l0.7,0l0,-0.7l-0.7,0l0,0.7Z" class="g4_1" />
<path fill-rule="evenodd" d="M205.7,643.4l96,0l0,-0.7l-96,0l0,0.7Z" class="g4_1" />
<path fill-rule="evenodd" d="M301.7,643.4l0.7,0l0,-0.7l-0.7,0l0,0.7Z" class="g4_1" />
<path fill-rule="evenodd" d="M302.4,643.4l41.8,0l0,-0.7l-41.8,0l0,0.7Z" class="g4_1" />
<path fill-rule="evenodd" d="M344.2,643.4l0.7,0l0,-0.7l-0.7,0l0,0.7Z" class="g4_1" />
<path fill-rule="evenodd" d="M344.9,643.4l42,0l0,-0.7l-42,0l0,0.7Z" class="g4_1" />
<path fill-rule="evenodd" d="M386.9,643.4l0.7,0l0,-0.7l-0.7,0l0,0.7Z" class="g4_1" />
<path fill-rule="evenodd" d="M387.6,643.4l41.8,0l0,-0.7l-41.8,0l0,0.7Z" class="g4_1" />
<path fill-rule="evenodd" d="M429.4,643.4l0.8,0l0,-0.7l-0.8,0l0,0.7Z" class="g4_1" />
<path fill-rule="evenodd" d="M430.2,643.4l42.4,0l0,-0.7l-42.4,0l0,0.7Z" class="g4_1" />
<path fill-rule="evenodd" d="M472.6,643.4l0.7,0l0,-0.7l-0.7,0l0,0.7Z" class="g4_1" />
<path fill-rule="evenodd" d="M473.3,643.4l42,0l0,-0.7l-42,0l0,0.7Z" class="g4_1" />
<path fill-rule="evenodd" d="M515.3,643.4l0.7,0l0,-0.7l-0.7,0l0,0.7Z" class="g4_1" />
<path fill-rule="evenodd" d="M516,643.4l377.8,0l0,-0.7l-377.8,0l0,0.7Z" class="g4_1" />
<path fill-rule="evenodd" d="M893.8,643.4l0.7,0l0,-0.7l-0.7,0l0,0.7Z" class="g4_1" />
<path fill-rule="evenodd" d="M39.6,680.6l0.7,0l0,-37.2l-0.7,0l0,37.2Z" class="g4_1" />
<path fill-rule="evenodd" d="M205,680.6l0.7,0l0,-37.2l-0.7,0l0,37.2Z" class="g4_1" />
<path fill-rule="evenodd" d="M301.7,680.6l0.7,0l0,-37.2l-0.7,0l0,37.2Z" class="g4_1" />
<path fill-rule="evenodd" d="M344.2,680.6l0.7,0l0,-37.2l-0.7,0l0,37.2Z" class="g4_1" />
<path fill-rule="evenodd" d="M386.9,680.6l0.7,0l0,-37.2l-0.7,0l0,37.2Z" class="g4_1" />
<path fill-rule="evenodd" d="M429.4,680.6l0.8,0l0,-37.2l-0.8,0l0,37.2Z" class="g4_1" />
<path fill-rule="evenodd" d="M472.6,680.6l0.7,0l0,-37.2l-0.7,0l0,37.2Z" class="g4_1" />
<path fill-rule="evenodd" d="M515.3,680.6l0.7,0l0,-37.2l-0.7,0l0,37.2Z" class="g4_1" />
<path fill-rule="evenodd" d="M893.8,680.6l0.7,0l0,-37.2l-0.7,0l0,37.2Z" class="g4_1" />
<path fill-rule="evenodd" d="M39.6,681.4l0.7,0l0,-0.8l-0.7,0l0,0.8Z" class="g4_1" />
<path fill-rule="evenodd" d="M40.3,681.4l164.7,0l0,-0.8l-164.7,0l0,0.8Z" class="g4_1" />
<path fill-rule="evenodd" d="M205,681.4l0.7,0l0,-0.8l-0.7,0l0,0.8Z" class="g4_1" />
<path fill-rule="evenodd" d="M205.7,681.4l96,0l0,-0.8l-96,0l0,0.8Z" class="g4_1" />
<path fill-rule="evenodd" d="M301.7,681.4l0.7,0l0,-0.8l-0.7,0l0,0.8Z" class="g4_1" />
<path fill-rule="evenodd" d="M302.4,681.4l41.8,0l0,-0.8l-41.8,0l0,0.8Z" class="g4_1" />
<path fill-rule="evenodd" d="M344.2,681.4l0.7,0l0,-0.8l-0.7,0l0,0.8Z" class="g4_1" />
<path fill-rule="evenodd" d="M344.9,681.4l42,0l0,-0.8l-42,0l0,0.8Z" class="g4_1" />
<path fill-rule="evenodd" d="M386.9,681.4l0.7,0l0,-0.8l-0.7,0l0,0.8Z" class="g4_1" />
<path fill-rule="evenodd" d="M387.6,681.4l41.8,0l0,-0.8l-41.8,0l0,0.8Z" class="g4_1" />
<path fill-rule="evenodd" d="M429.4,681.4l0.8,0l0,-0.8l-0.8,0l0,0.8Z" class="g4_1" />
<path fill-rule="evenodd" d="M430.2,681.4l42.4,0l0,-0.8l-42.4,0l0,0.8Z" class="g4_1" />
<path fill-rule="evenodd" d="M472.6,681.4l0.7,0l0,-0.8l-0.7,0l0,0.8Z" class="g4_1" />
<path fill-rule="evenodd" d="M473.3,681.4l42,0l0,-0.8l-42,0l0,0.8Z" class="g4_1" />
<path fill-rule="evenodd" d="M515.3,681.4l0.7,0l0,-0.8l-0.7,0l0,0.8Z" class="g4_1" />
<path fill-rule="evenodd" d="M516,681.4l377.8,0l0,-0.8l-377.8,0l0,0.8Z" class="g4_1" />
<path fill-rule="evenodd" d="M893.8,681.4l0.7,0l0,-0.8l-0.7,0l0,0.8Z" class="g4_1" />
<path fill-rule="evenodd" d="M39.6,718.8l0.7,0l0,-37.4l-0.7,0l0,37.4Z" class="g4_1" />
<path fill-rule="evenodd" d="M205,718.8l0.7,0l0,-37.4l-0.7,0l0,37.4Z" class="g4_1" />
<path fill-rule="evenodd" d="M301.7,718.8l0.7,0l0,-37.4l-0.7,0l0,37.4Z" class="g4_1" />
<path fill-rule="evenodd" d="M344.2,718.8l0.7,0l0,-37.4l-0.7,0l0,37.4Z" class="g4_1" />
<path fill-rule="evenodd" d="M386.9,718.8l0.7,0l0,-37.4l-0.7,0l0,37.4Z" class="g4_1" />
<path fill-rule="evenodd" d="M429.4,718.8l0.8,0l0,-37.4l-0.8,0l0,37.4Z" class="g4_1" />
<path fill-rule="evenodd" d="M472.6,718.8l0.7,0l0,-37.4l-0.7,0l0,37.4Z" class="g4_1" />
<path fill-rule="evenodd" d="M515.3,718.8l0.7,0l0,-37.4l-0.7,0l0,37.4Z" class="g4_1" />
<path fill-rule="evenodd" d="M893.8,718.8l0.7,0l0,-37.4l-0.7,0l0,37.4Z" class="g4_1" />
<path fill-rule="evenodd" d="M39.6,719.5l0.7,0l0,-0.7l-0.7,0l0,0.7Z" class="g4_1" />
<path fill-rule="evenodd" d="M40.3,719.5l164.7,0l0,-0.7l-164.7,0l0,0.7Z" class="g4_1" />
<path fill-rule="evenodd" d="M205,719.5l0.7,0l0,-0.7l-0.7,0l0,0.7Z" class="g4_1" />
<path fill-rule="evenodd" d="M205.7,719.5l96,0l0,-0.7l-96,0l0,0.7Z" class="g4_1" />
<path fill-rule="evenodd" d="M301.7,719.5l0.7,0l0,-0.7l-0.7,0l0,0.7Z" class="g4_1" />
<path fill-rule="evenodd" d="M302.4,719.5l41.8,0l0,-0.7l-41.8,0l0,0.7Z" class="g4_1" />
<path fill-rule="evenodd" d="M344.2,719.5l0.7,0l0,-0.7l-0.7,0l0,0.7Z" class="g4_1" />
<path fill-rule="evenodd" d="M344.9,719.5l42,0l0,-0.7l-42,0l0,0.7Z" class="g4_1" />
<path fill-rule="evenodd" d="M386.9,719.5l0.7,0l0,-0.7l-0.7,0l0,0.7Z" class="g4_1" />
<path fill-rule="evenodd" d="M387.6,719.5l41.8,0l0,-0.7l-41.8,0l0,0.7Z" class="g4_1" />
<path fill-rule="evenodd" d="M429.4,719.5l0.8,0l0,-0.7l-0.8,0l0,0.7Z" class="g4_1" />
<path fill-rule="evenodd" d="M430.2,719.5l42.4,0l0,-0.7l-42.4,0l0,0.7Z" class="g4_1" />
<path fill-rule="evenodd" d="M472.6,719.5l0.7,0l0,-0.7l-0.7,0l0,0.7Z" class="g4_1" />
<path fill-rule="evenodd" d="M473.3,719.5l42,0l0,-0.7l-42,0l0,0.7Z" class="g4_1" />
<path fill-rule="evenodd" d="M515.3,719.5l0.7,0l0,-0.7l-0.7,0l0,0.7Z" class="g4_1" />
<path fill-rule="evenodd" d="M516,719.5l377.8,0l0,-0.7l-377.8,0l0,0.7Z" class="g4_1" />
<path fill-rule="evenodd" d="M893.8,719.5l0.7,0l0,-0.7l-0.7,0l0,0.7Z" class="g4_1" />
<path fill-rule="evenodd" d="M39.6,756.9l0.7,0l0,-37.4l-0.7,0l0,37.4Z" class="g4_1" />
<path fill-rule="evenodd" d="M205,756.9l0.7,0l0,-37.4l-0.7,0l0,37.4Z" class="g4_1" />
<path fill-rule="evenodd" d="M301.7,756.9l0.7,0l0,-37.4l-0.7,0l0,37.4Z" class="g4_1" />
<path fill-rule="evenodd" d="M344.2,756.9l0.7,0l0,-37.4l-0.7,0l0,37.4Z" class="g4_1" />
<path fill-rule="evenodd" d="M386.9,756.9l0.7,0l0,-37.4l-0.7,0l0,37.4Z" class="g4_1" />
<path fill-rule="evenodd" d="M429.4,756.9l0.8,0l0,-37.4l-0.8,0l0,37.4Z" class="g4_1" />
<path fill-rule="evenodd" d="M472.6,756.9l0.7,0l0,-37.4l-0.7,0l0,37.4Z" class="g4_1" />
<path fill-rule="evenodd" d="M515.3,756.9l0.7,0l0,-37.4l-0.7,0l0,37.4Z" class="g4_1" />
<path fill-rule="evenodd" d="M893.8,756.9l0.7,0l0,-37.4l-0.7,0l0,37.4Z" class="g4_1" />
<path fill-rule="evenodd" d="M39.6,757.6l0.7,0l0,-0.7l-0.7,0l0,0.7Z" class="g4_1" />
<path fill-rule="evenodd" d="M40.3,757.6l164.7,0l0,-0.7l-164.7,0l0,0.7Z" class="g4_1" />
<path fill-rule="evenodd" d="M205,757.6l0.7,0l0,-0.7l-0.7,0l0,0.7Z" class="g4_1" />
<path fill-rule="evenodd" d="M205.7,757.6l96,0l0,-0.7l-96,0l0,0.7Z" class="g4_1" />
<path fill-rule="evenodd" d="M301.7,757.6l0.7,0l0,-0.7l-0.7,0l0,0.7Z" class="g4_1" />
<path fill-rule="evenodd" d="M302.4,757.6l41.8,0l0,-0.7l-41.8,0l0,0.7Z" class="g4_1" />
<path fill-rule="evenodd" d="M344.2,757.6l0.7,0l0,-0.7l-0.7,0l0,0.7Z" class="g4_1" />
<path fill-rule="evenodd" d="M344.9,757.6l42,0l0,-0.7l-42,0l0,0.7Z" class="g4_1" />
<path fill-rule="evenodd" d="M386.9,757.6l0.7,0l0,-0.7l-0.7,0l0,0.7Z" class="g4_1" />
<path fill-rule="evenodd" d="M387.6,757.6l41.8,0l0,-0.7l-41.8,0l0,0.7Z" class="g4_1" />
<path fill-rule="evenodd" d="M429.4,757.6l0.8,0l0,-0.7l-0.8,0l0,0.7Z" class="g4_1" />
<path fill-rule="evenodd" d="M430.2,757.6l42.4,0l0,-0.7l-42.4,0l0,0.7Z" class="g4_1" />
<path fill-rule="evenodd" d="M472.6,757.6l0.7,0l0,-0.7l-0.7,0l0,0.7Z" class="g4_1" />
<path fill-rule="evenodd" d="M473.3,757.6l42,0l0,-0.7l-42,0l0,0.7Z" class="g4_1" />
<path fill-rule="evenodd" d="M515.3,757.6l0.7,0l0,-0.7l-0.7,0l0,0.7Z" class="g4_1" />
<path fill-rule="evenodd" d="M516,757.6l377.8,0l0,-0.7l-377.8,0l0,0.7Z" class="g4_1" />
<path fill-rule="evenodd" d="M893.8,757.6l0.7,0l0,-0.7l-0.7,0l0,0.7Z" class="g4_1" />
<path fill-rule="evenodd" d="M39.6,794.9l0.7,0l0,-37.3l-0.7,0l0,37.3Z" class="g4_1" />
<path fill-rule="evenodd" d="M205,794.9l0.7,0l0,-37.3l-0.7,0l0,37.3Z" class="g4_1" />
<path fill-rule="evenodd" d="M301.7,794.9l0.7,0l0,-37.3l-0.7,0l0,37.3Z" class="g4_1" />
<path fill-rule="evenodd" d="M344.2,794.9l0.7,0l0,-37.3l-0.7,0l0,37.3Z" class="g4_1" />
<path fill-rule="evenodd" d="M386.9,794.9l0.7,0l0,-37.3l-0.7,0l0,37.3Z" class="g4_1" />
<path fill-rule="evenodd" d="M429.4,794.9l0.8,0l0,-37.3l-0.8,0l0,37.3Z" class="g4_1" />
<path fill-rule="evenodd" d="M472.6,794.9l0.7,0l0,-37.3l-0.7,0l0,37.3Z" class="g4_1" />
<path fill-rule="evenodd" d="M515.3,794.9l0.7,0l0,-37.3l-0.7,0l0,37.3Z" class="g4_1" />
<path fill-rule="evenodd" d="M893.8,794.9l0.7,0l0,-37.3l-0.7,0l0,37.3Z" class="g4_1" />
<path fill-rule="evenodd" d="M39.6,795.6l0.7,0l0,-0.7l-0.7,0l0,0.7Z" class="g4_1" />
<path fill-rule="evenodd" d="M40.3,795.6l164.7,0l0,-0.7l-164.7,0l0,0.7Z" class="g4_1" />
<path fill-rule="evenodd" d="M205,795.6l0.7,0l0,-0.7l-0.7,0l0,0.7Z" class="g4_1" />
<path fill-rule="evenodd" d="M205.7,795.6l96,0l0,-0.7l-96,0l0,0.7Z" class="g4_1" />
<path fill-rule="evenodd" d="M301.7,795.6l0.7,0l0,-0.7l-0.7,0l0,0.7Z" class="g4_1" />
<path fill-rule="evenodd" d="M302.4,795.6l41.8,0l0,-0.7l-41.8,0l0,0.7Z" class="g4_1" />
<path fill-rule="evenodd" d="M344.2,795.6l0.7,0l0,-0.7l-0.7,0l0,0.7Z" class="g4_1" />
<path fill-rule="evenodd" d="M344.9,795.6l42,0l0,-0.7l-42,0l0,0.7Z" class="g4_1" />
<path fill-rule="evenodd" d="M386.9,795.6l0.7,0l0,-0.7l-0.7,0l0,0.7Z" class="g4_1" />
<path fill-rule="evenodd" d="M387.6,795.6l41.8,0l0,-0.7l-41.8,0l0,0.7Z" class="g4_1" />
<path fill-rule="evenodd" d="M429.4,795.6l0.8,0l0,-0.7l-0.8,0l0,0.7Z" class="g4_1" />
<path fill-rule="evenodd" d="M430.2,795.6l42.4,0l0,-0.7l-42.4,0l0,0.7Z" class="g4_1" />
<path fill-rule="evenodd" d="M472.6,795.6l0.7,0l0,-0.7l-0.7,0l0,0.7Z" class="g4_1" />
<path fill-rule="evenodd" d="M473.3,795.6l42,0l0,-0.7l-42,0l0,0.7Z" class="g4_1" />
<path fill-rule="evenodd" d="M515.3,795.6l0.7,0l0,-0.7l-0.7,0l0,0.7Z" class="g4_1" />
<path fill-rule="evenodd" d="M516,795.6l377.8,0l0,-0.7l-377.8,0l0,0.7Z" class="g4_1" />
<path fill-rule="evenodd" d="M893.8,795.6l0.7,0l0,-0.7l-0.7,0l0,0.7Z" class="g4_1" />
<path fill-rule="evenodd" d="M39.6,833l0.7,0l0,-37.4l-0.7,0l0,37.4Z" class="g4_1" />
<path fill-rule="evenodd" d="M205,833l0.7,0l0,-37.4l-0.7,0l0,37.4Z" class="g4_1" />
<path fill-rule="evenodd" d="M301.7,833l0.7,0l0,-37.4l-0.7,0l0,37.4Z" class="g4_1" />
<path fill-rule="evenodd" d="M344.2,833l0.7,0l0,-37.4l-0.7,0l0,37.4Z" class="g4_1" />
<path fill-rule="evenodd" d="M386.9,833l0.7,0l0,-37.4l-0.7,0l0,37.4Z" class="g4_1" />
<path fill-rule="evenodd" d="M429.4,833l0.8,0l0,-37.4l-0.8,0l0,37.4Z" class="g4_1" />
<path fill-rule="evenodd" d="M472.6,833l0.7,0l0,-37.4l-0.7,0l0,37.4Z" class="g4_1" />
<path fill-rule="evenodd" d="M515.3,833l0.7,0l0,-37.4l-0.7,0l0,37.4Z" class="g4_1" />
<path fill-rule="evenodd" d="M893.8,833l0.7,0l0,-37.4l-0.7,0l0,37.4Z" class="g4_1" />
<path fill-rule="evenodd" d="M40.3,850.6l853.3,0l0,-16.9l-853.3,0l0,16.9Z" class="g3_1" />
<g clip-path="url(#c1_1)">
<path fill-rule="evenodd" d="M48.2,850.6l837.5,0l0,-16.9l-837.5,0l0,16.9Z" class="g3_1" />
</g>
<path fill-rule="evenodd" d="M39.6,833.7l0.7,0l0,-0.7l-0.7,0l0,0.7Z" class="g4_1" />
<path fill-rule="evenodd" d="M40.3,833.7l164.7,0l0,-0.7L40.3,833l0,0.7Z" class="g4_1" />
<path fill-rule="evenodd" d="M205,833.7l0.7,0l0,-0.7l-0.7,0l0,0.7Z" class="g4_1" />
<path fill-rule="evenodd" d="M205.7,833.7l96,0l0,-0.7l-96,0l0,0.7Z" class="g4_1" />
<path fill-rule="evenodd" d="M301.7,833.7l0.7,0l0,-0.7l-0.7,0l0,0.7Z" class="g4_1" />
<path fill-rule="evenodd" d="M302.4,833.7l41.8,0l0,-0.7l-41.8,0l0,0.7Z" class="g4_1" />
<path fill-rule="evenodd" d="M344.2,833.7l0.7,0l0,-0.7l-0.7,0l0,0.7Z" class="g4_1" />
<path fill-rule="evenodd" d="M344.9,833.7l42,0l0,-0.7l-42,0l0,0.7Z" class="g4_1" />
<path fill-rule="evenodd" d="M386.9,833.7l0.7,0l0,-0.7l-0.7,0l0,0.7Z" class="g4_1" />
<path fill-rule="evenodd" d="M387.6,833.7l41.8,0l0,-0.7l-41.8,0l0,0.7Z" class="g4_1" />
<path fill-rule="evenodd" d="M429.4,833.7l0.8,0l0,-0.7l-0.8,0l0,0.7Z" class="g4_1" />
<path fill-rule="evenodd" d="M430.2,833.7l42.4,0l0,-0.7l-42.4,0l0,0.7Z" class="g4_1" />
<path fill-rule="evenodd" d="M472.6,833.7l0.7,0l0,-0.7l-0.7,0l0,0.7Z" class="g4_1" />
<path fill-rule="evenodd" d="M473.3,833.7l42,0l0,-0.7l-42,0l0,0.7Z" class="g4_1" />
<path fill-rule="evenodd" d="M515.3,833.7l0.7,0l0,-0.7l-0.7,0l0,0.7Z" class="g4_1" />
<path fill-rule="evenodd" d="M516,833.7l377.8,0l0,-0.7L516,833l0,0.7Z" class="g4_1" />
<path fill-rule="evenodd" d="M893.8,833.7l0.7,0l0,-0.7l-0.7,0l0,0.7Z" class="g4_1" />
<path fill-rule="evenodd" d="M39.6,850.6l0.7,0l0,-16.9l-0.7,0l0,16.9Z" class="g3_1" />
<path fill-rule="evenodd" d="M893.8,850.6l0.7,0l0,-16.9l-0.7,0l0,16.9Z" class="g3_1" />
<path fill-rule="evenodd" d="M40.3,866.2l853.3,0l0,-14.9l-853.3,0l0,14.9Z" class="g5_1" />
<g clip-path="url(#c2_1)">
<path fill-rule="evenodd" d="M48.2,866.2l837.5,0l0,-14.9l-837.5,0l0,14.9Z" class="g5_1" />
</g>
<path fill-rule="evenodd" d="M39.6,851.3l0.7,0l0,-0.7l-0.7,0l0,0.7Z" class="g4_1" />
<path fill-rule="evenodd" d="M40.3,851.3l853.5,0l0,-0.7l-853.5,0l0,0.7Z" class="g4_1" />
<path fill-rule="evenodd" d="M893.8,851.3l0.7,0l0,-0.7l-0.7,0l0,0.7Z" class="g4_1" />
<path fill-rule="evenodd" d="M39.6,866.2l0.7,0l0,-14.9l-0.7,0l0,14.9Z" class="g4_1" />
<path fill-rule="evenodd" d="M893.8,866.2l0.7,0l0,-14.9l-0.7,0l0,14.9Z" class="g4_1" />
<path fill-rule="evenodd" d="M39.6,866.9l0.7,0l0,-0.7l-0.7,0l0,0.7Z" class="g4_1" />
<path fill-rule="evenodd" d="M40.3,866.9l853.5,0l0,-0.7l-853.5,0l0,0.7Z" class="g4_1" />
<path fill-rule="evenodd" d="M893.8,866.9l0.7,0l0,-0.7l-0.7,0l0,0.7Z" class="g4_1" />
<path fill-rule="evenodd" d="M39.6,1010.7l0.7,0l0,-143.8l-0.7,0l0,143.8Z" class="g4_1" />
<path fill-rule="evenodd" d="M893.8,1010.7l0.7,0l0,-143.8l-0.7,0l0,143.8Z" class="g4_1" />
<path fill-rule="evenodd" d="M39.6,1011.4l0.7,0l0,-0.7l-0.7,0l0,0.7Z" class="g4_1" />
<path fill-rule="evenodd" d="M40.3,1011.4l853.5,0l0,-0.7l-853.5,0l0,0.7Z" class="g4_1" />
<path fill-rule="evenodd" d="M893.8,1011.4l0.7,0l0,-0.7l-0.7,0l0,0.7Z" class="g4_1" />
<path fill-rule="evenodd" d="M39.6,1028.1l0.7,0l0,-16.7l-0.7,0l0,16.7Z" class="g3_1" />
<path fill-rule="evenodd" d="M893.8,1028.1l0.7,0l0,-16.7l-0.7,0l0,16.7Z" class="g3_1" />
<path fill-rule="evenodd" d="M40.3,1043.9l481.2,0l0,-15.1l-481.2,0l0,15.1Z" class="g5_1" />
<g clip-path="url(#c3_1)">
<path fill-rule="evenodd" d="M48.2,1043.9l465.4,0l0,-15.1l-465.4,0l0,15.1Z" class="g5_1" />
</g>
<path fill-rule="evenodd" d="M541.9,1043.9l351.7,0l0,-15.1l-351.7,0l0,15.1Z" class="g5_1" />
<g clip-path="url(#c4_1)">
<path fill-rule="evenodd" d="M549.7,1043.9l336,0l0,-15.1l-336,0l0,15.1Z" class="g5_1" />
</g>
<path fill-rule="evenodd" d="M39.6,1028.8l0.7,0l0,-0.7l-0.7,0l0,0.7Z" class="g4_1" />
<path fill-rule="evenodd" d="M40.3,1028.8l481.2,0l0,-0.7l-481.2,0l0,0.7Z" class="g4_1" />
<path fill-rule="evenodd" d="M521.5,1028.8l0.7,0l0,-0.7l-0.7,0l0,0.7Z" class="g4_1" />
<path fill-rule="evenodd" d="M521.5,1028.8l0.7,0l0,-0.7l-0.7,0l0,0.7Z" class="g4_1" />
<path fill-rule="evenodd" d="M522.2,1028.8l18.9,0l0,-0.7l-18.9,0l0,0.7Z" class="g3_1" />
<path fill-rule="evenodd" d="M541.1,1028.8l0.8,0l0,-0.7l-0.8,0l0,0.7Z" class="g4_1" />
<path fill-rule="evenodd" d="M541.9,1028.8l351.9,0l0,-0.7l-351.9,0l0,0.7Z" class="g4_1" />
<path fill-rule="evenodd" d="M893.8,1028.8l0.7,0l0,-0.7l-0.7,0l0,0.7Z" class="g4_1" />
<path fill-rule="evenodd" d="M39.6,1043.9l0.7,0l0,-15.1l-0.7,0l0,15.1Z" class="g4_1" />
<path fill-rule="evenodd" d="M521.5,1043.9l0.7,0l0,-15.1l-0.7,0l0,15.1Z" class="g4_1" />
<path fill-rule="evenodd" d="M541.1,1043.9l0.8,0l0,-15.1l-0.8,0l0,15.1Z" class="g4_1" />
<path fill-rule="evenodd" d="M893.8,1043.9l0.7,0l0,-15.1l-0.7,0l0,15.1Z" class="g4_1" />
<path fill-rule="evenodd" d="M39.6,1044.6l0.7,0l0,-0.7l-0.7,0l0,0.7Z" class="g4_1" />
<path fill-rule="evenodd" d="M40.3,1044.6l76.3,0l0,-0.7l-76.3,0l0,0.7Z" class="g4_1" />
<path fill-rule="evenodd" d="M116.6,1044.6l0.8,0l0,-0.7l-0.8,0l0,0.7Z" class="g4_1" />
<path fill-rule="evenodd" d="M117.4,1044.6l116.2,0l0,-0.7l-116.2,0l0,0.7Z" class="g4_1" />
<path fill-rule="evenodd" d="M233.6,1044.6l0.7,0l0,-0.7l-0.7,0l0,0.7Z" class="g4_1" />
<path fill-rule="evenodd" d="M234.3,1044.6l33.6,0l0,-0.7l-33.6,0l0,0.7Z" class="g4_1" />
<path fill-rule="evenodd" d="M267.9,1044.6l0.8,0l0,-0.7l-0.8,0l0,0.7Z" class="g4_1" />
<path fill-rule="evenodd" d="M268.7,1044.6l116.2,0l0,-0.7l-116.2,0l0,0.7Z" class="g4_1" />
<path fill-rule="evenodd" d="M384.9,1044.6l0.7,0l0,-0.7l-0.7,0l0,0.7Z" class="g4_1" />
<path fill-rule="evenodd" d="M385.6,1044.6l135.9,0l0,-0.7l-135.9,0l0,0.7Z" class="g4_1" />
<path fill-rule="evenodd" d="M521.5,1044.6l0.7,0l0,-0.7l-0.7,0l0,0.7Z" class="g4_1" />
<path fill-rule="evenodd" d="M541.1,1044.6l0.8,0l0,-0.7l-0.8,0l0,0.7Z" class="g4_1" />
<path fill-rule="evenodd" d="M541.9,1044.6l107.8,0l0,-0.7l-107.8,0l0,0.7Z" class="g4_1" />
<path fill-rule="evenodd" d="M649.7,1044.6l0.7,0l0,-0.7l-0.7,0l0,0.7Z" class="g4_1" />
<path fill-rule="evenodd" d="M650.4,1044.6l47.9,0l0,-0.7l-47.9,0l0,0.7Z" class="g4_1" />
<path fill-rule="evenodd" d="M698.3,1044.6l0.7,0l0,-0.7l-0.7,0l0,0.7Z" class="g4_1" />
<path fill-rule="evenodd" d="M699,1044.6l47.9,0l0,-0.7l-47.9,0l0,0.7Z" class="g4_1" />
<path fill-rule="evenodd" d="M746.9,1044.6l0.7,0l0,-0.7l-0.7,0l0,0.7Z" class="g4_1" />
<path fill-rule="evenodd" d="M747.6,1044.6l48.1,0l0,-0.7l-48.1,0l0,0.7Z" class="g4_1" />
<path fill-rule="evenodd" d="M795.7,1044.6l0.7,0l0,-0.7l-0.7,0l0,0.7Z" class="g4_1" />
<path fill-rule="evenodd" d="M796.4,1044.6l47.9,0l0,-0.7l-47.9,0l0,0.7Z" class="g4_1" />
<path fill-rule="evenodd" d="M844.2,1044.6l0.8,0l0,-0.7l-0.8,0l0,0.7Z" class="g4_1" />
<path fill-rule="evenodd" d="M845,1044.6l48.8,0l0,-0.7l-48.8,0l0,0.7Z" class="g4_1" />
<path fill-rule="evenodd" d="M893.8,1044.6l0.7,0l0,-0.7l-0.7,0l0,0.7Z" class="g4_1" />
<path fill-rule="evenodd" d="M39.6,1059.4l0.7,0l0,-14.8l-0.7,0l0,14.8Z" class="g4_1" />
<path fill-rule="evenodd" d="M116.6,1059.4l0.8,0l0,-14.8l-0.8,0l0,14.8Z" class="g3_1" />
<path fill-rule="evenodd" d="M233.6,1059.4l0.7,0l0,-14.8l-0.7,0l0,14.8Z" class="g3_1" />
<path fill-rule="evenodd" d="M267.9,1059.4l0.8,0l0,-14.8l-0.8,0l0,14.8Z" class="g3_1" />
<path fill-rule="evenodd" d="M384.9,1059.4l0.7,0l0,-14.8l-0.7,0l0,14.8Z" class="g3_1" />
<path fill-rule="evenodd" d="M521.5,1059.4l0.7,0l0,-14.8l-0.7,0l0,14.8Z" class="g4_1" />
<path fill-rule="evenodd" d="M541.1,1059.4l0.8,0l0,-14.8l-0.8,0l0,14.8Z" class="g4_1" />
<path fill-rule="evenodd" d="M649.7,1059.4l0.7,0l0,-14.8l-0.7,0l0,14.8Z" class="g4_1" />
<path fill-rule="evenodd" d="M698.3,1059.4l0.7,0l0,-14.8l-0.7,0l0,14.8Z" class="g4_1" />
<path fill-rule="evenodd" d="M746.9,1059.4l0.7,0l0,-14.8l-0.7,0l0,14.8Z" class="g4_1" />
<path fill-rule="evenodd" d="M795.7,1059.4l0.7,0l0,-14.8l-0.7,0l0,14.8Z" class="g4_1" />
<path fill-rule="evenodd" d="M844.2,1059.4l0.8,0l0,-14.8l-0.8,0l0,14.8Z" class="g4_1" />
<path fill-rule="evenodd" d="M893.8,1059.4l0.7,0l0,-14.8l-0.7,0l0,14.8Z" class="g4_1" />
<path fill-rule="evenodd" d="M39.6,1060.2l0.7,0l0,-0.8l-0.7,0l0,0.8Z" class="g4_1" />
<path fill-rule="evenodd" d="M116.6,1060.2l0.8,0l0,-0.8l-0.8,0l0,0.8Z" class="g3_1" />
<path fill-rule="evenodd" d="M233.6,1060.2l0.7,0l0,-0.8l-0.7,0l0,0.8Z" class="g3_1" />
<path fill-rule="evenodd" d="M267.9,1060.2l0.8,0l0,-0.8l-0.8,0l0,0.8Z" class="g3_1" />
<path fill-rule="evenodd" d="M384.9,1060.2l0.7,0l0,-0.8l-0.7,0l0,0.8Z" class="g3_1" />
<path fill-rule="evenodd" d="M521.5,1060.2l0.7,0l0,-0.8l-0.7,0l0,0.8Z" class="g4_1" />
<path fill-rule="evenodd" d="M541.1,1060.2l0.8,0l0,-0.8l-0.8,0l0,0.8Z" class="g4_1" />
<path fill-rule="evenodd" d="M541.9,1060.2l107.8,0l0,-0.8l-107.8,0l0,0.8Z" class="g4_1" />
<path fill-rule="evenodd" d="M649.7,1060.2l0.7,0l0,-0.8l-0.7,0l0,0.8Z" class="g4_1" />
<path fill-rule="evenodd" d="M650.4,1060.2l47.9,0l0,-0.8l-47.9,0l0,0.8Z" class="g4_1" />
<path fill-rule="evenodd" d="M698.3,1060.2l0.7,0l0,-0.8l-0.7,0l0,0.8Z" class="g4_1" />
<path fill-rule="evenodd" d="M699,1060.2l47.9,0l0,-0.8l-47.9,0l0,0.8Z" class="g4_1" />
<path fill-rule="evenodd" d="M746.9,1060.2l0.7,0l0,-0.8l-0.7,0l0,0.8Z" class="g4_1" />
<path fill-rule="evenodd" d="M747.6,1060.2l48.1,0l0,-0.8l-48.1,0l0,0.8Z" class="g4_1" />
<path fill-rule="evenodd" d="M795.7,1060.2l0.7,0l0,-0.8l-0.7,0l0,0.8Z" class="g4_1" />
<path fill-rule="evenodd" d="M796.4,1060.2l47.9,0l0,-0.8l-47.9,0l0,0.8Z" class="g4_1" />
<path fill-rule="evenodd" d="M844.2,1060.2l0.8,0l0,-0.8l-0.8,0l0,0.8Z" class="g4_1" />
<path fill-rule="evenodd" d="M845,1060.2l48.8,0l0,-0.8l-48.8,0l0,0.8Z" class="g4_1" />
<path fill-rule="evenodd" d="M893.8,1060.2l0.7,0l0,-0.8l-0.7,0l0,0.8Z" class="g4_1" />
<path fill-rule="evenodd" d="M39.6,1077l0.7,0l0,-16.8l-0.7,0l0,16.8Z" class="g4_1" />
<path fill-rule="evenodd" d="M116.6,1077l0.8,0l0,-16.8l-0.8,0l0,16.8Z" class="g3_1" />
<path fill-rule="evenodd" d="M233.6,1077l0.7,0l0,-16.8l-0.7,0l0,16.8Z" class="g3_1" />
<path fill-rule="evenodd" d="M267.9,1077l0.8,0l0,-16.8l-0.8,0l0,16.8Z" class="g3_1" />
<path fill-rule="evenodd" d="M384.9,1077l0.7,0l0,-16.8l-0.7,0l0,16.8Z" class="g3_1" />
<path fill-rule="evenodd" d="M521.5,1077l0.7,0l0,-16.8l-0.7,0l0,16.8Z" class="g4_1" />
<path fill-rule="evenodd" d="M541.1,1077l0.8,0l0,-16.8l-0.8,0l0,16.8Z" class="g4_1" />
<path fill-rule="evenodd" d="M649.7,1077l0.7,0l0,-16.8l-0.7,0l0,16.8Z" class="g4_1" />
<path fill-rule="evenodd" d="M698.3,1077l0.7,0l0,-16.8l-0.7,0l0,16.8Z" class="g4_1" />
<path fill-rule="evenodd" d="M746.9,1077l0.7,0l0,-16.8l-0.7,0l0,16.8Z" class="g4_1" />
<path fill-rule="evenodd" d="M795.7,1077l0.7,0l0,-16.8l-0.7,0l0,16.8Z" class="g4_1" />
<path fill-rule="evenodd" d="M844.2,1077l0.8,0l0,-16.8l-0.8,0l0,16.8Z" class="g4_1" />
<path fill-rule="evenodd" d="M893.8,1077l0.7,0l0,-16.8l-0.7,0l0,16.8Z" class="g4_1" />
<path fill-rule="evenodd" d="M39.6,1077.8l0.7,0l0,-0.8l-0.7,0l0,0.8Z" class="g4_1" />
<path fill-rule="evenodd" d="M116.6,1077.8l0.8,0l0,-0.8l-0.8,0l0,0.8Z" class="g3_1" />
<path fill-rule="evenodd" d="M233.6,1077.8l0.7,0l0,-0.8l-0.7,0l0,0.8Z" class="g3_1" />
<path fill-rule="evenodd" d="M267.9,1077.8l0.8,0l0,-0.8l-0.8,0l0,0.8Z" class="g3_1" />
<path fill-rule="evenodd" d="M384.9,1077.8l0.7,0l0,-0.8l-0.7,0l0,0.8Z" class="g3_1" />
<path fill-rule="evenodd" d="M521.5,1077.8l0.7,0l0,-0.8l-0.7,0l0,0.8Z" class="g4_1" />
<path fill-rule="evenodd" d="M541.1,1077.8l0.8,0l0,-0.8l-0.8,0l0,0.8Z" class="g4_1" />
<path fill-rule="evenodd" d="M541.9,1077.8l107.8,0l0,-0.8l-107.8,0l0,0.8Z" class="g4_1" />
<path fill-rule="evenodd" d="M649.7,1077.8l0.7,0l0,-0.8l-0.7,0l0,0.8Z" class="g4_1" />
<path fill-rule="evenodd" d="M650.4,1077.8l47.9,0l0,-0.8l-47.9,0l0,0.8Z" class="g4_1" />
<path fill-rule="evenodd" d="M698.3,1077.8l0.7,0l0,-0.8l-0.7,0l0,0.8Z" class="g4_1" />
<path fill-rule="evenodd" d="M699,1077.8l47.9,0l0,-0.8l-47.9,0l0,0.8Z" class="g4_1" />
<path fill-rule="evenodd" d="M746.9,1077.8l0.7,0l0,-0.8l-0.7,0l0,0.8Z" class="g4_1" />
<path fill-rule="evenodd" d="M747.6,1077.8l48.1,0l0,-0.8l-48.1,0l0,0.8Z" class="g4_1" />
<path fill-rule="evenodd" d="M795.7,1077.8l0.7,0l0,-0.8l-0.7,0l0,0.8Z" class="g4_1" />
<path fill-rule="evenodd" d="M796.4,1077.8l47.9,0l0,-0.8l-47.9,0l0,0.8Z" class="g4_1" />
<path fill-rule="evenodd" d="M844.2,1077.8l0.8,0l0,-0.8l-0.8,0l0,0.8Z" class="g4_1" />
<path fill-rule="evenodd" d="M845,1077.8l48.8,0l0,-0.8l-48.8,0l0,0.8Z" class="g4_1" />
<path fill-rule="evenodd" d="M893.8,1077.8l0.7,0l0,-0.8l-0.7,0l0,0.8Z" class="g4_1" />
<path fill-rule="evenodd" d="M39.6,1094.6l0.7,0l0,-16.8l-0.7,0l0,16.8Z" class="g4_1" />
<path fill-rule="evenodd" d="M116.6,1094.6l0.8,0l0,-16.8l-0.8,0l0,16.8Z" class="g3_1" />
<path fill-rule="evenodd" d="M233.6,1094.6l0.7,0l0,-16.8l-0.7,0l0,16.8Z" class="g3_1" />
<path fill-rule="evenodd" d="M267.9,1094.6l0.8,0l0,-16.8l-0.8,0l0,16.8Z" class="g3_1" />
<path fill-rule="evenodd" d="M384.9,1094.6l0.7,0l0,-16.8l-0.7,0l0,16.8Z" class="g3_1" />
<path fill-rule="evenodd" d="M521.5,1094.6l0.7,0l0,-16.8l-0.7,0l0,16.8Z" class="g4_1" />
<path fill-rule="evenodd" d="M541.1,1094.6l0.8,0l0,-16.8l-0.8,0l0,16.8Z" class="g4_1" />
<path fill-rule="evenodd" d="M649.7,1094.6l0.7,0l0,-16.8l-0.7,0l0,16.8Z" class="g4_1" />
<path fill-rule="evenodd" d="M698.3,1094.6l0.7,0l0,-16.8l-0.7,0l0,16.8Z" class="g4_1" />
<path fill-rule="evenodd" d="M746.9,1094.6l0.7,0l0,-16.8l-0.7,0l0,16.8Z" class="g4_1" />
<path fill-rule="evenodd" d="M795.7,1094.6l0.7,0l0,-16.8l-0.7,0l0,16.8Z" class="g4_1" />
<path fill-rule="evenodd" d="M844.2,1094.6l0.8,0l0,-16.8l-0.8,0l0,16.8Z" class="g4_1" />
<path fill-rule="evenodd" d="M893.8,1094.6l0.7,0l0,-16.8l-0.7,0l0,16.8Z" class="g4_1" />
<path fill-rule="evenodd" d="M39.6,1095.4l0.7,0l0,-0.8l-0.7,0l0,0.8Z" class="g4_1" />
<path fill-rule="evenodd" d="M116.6,1095.4l0.8,0l0,-0.8l-0.8,0l0,0.8Z" class="g3_1" />
<path fill-rule="evenodd" d="M233.6,1095.4l0.7,0l0,-0.8l-0.7,0l0,0.8Z" class="g3_1" />
<path fill-rule="evenodd" d="M267.9,1095.4l0.8,0l0,-0.8l-0.8,0l0,0.8Z" class="g3_1" />
<path fill-rule="evenodd" d="M384.9,1095.4l0.7,0l0,-0.8l-0.7,0l0,0.8Z" class="g3_1" />
<path fill-rule="evenodd" d="M521.5,1095.4l0.7,0l0,-0.8l-0.7,0l0,0.8Z" class="g4_1" />
<path fill-rule="evenodd" d="M522.2,1095.4l18.9,0l0,-0.8l-18.9,0l0,0.8Z" class="g3_1" />
<path fill-rule="evenodd" d="M541.1,1095.4l0.8,0l0,-0.8l-0.8,0l0,0.8Z" class="g4_1" />
<path fill-rule="evenodd" d="M541.9,1095.4l107.8,0l0,-0.8l-107.8,0l0,0.8Z" class="g4_1" />
<path fill-rule="evenodd" d="M649.7,1095.4l0.7,0l0,-0.8l-0.7,0l0,0.8Z" class="g4_1" />
<path fill-rule="evenodd" d="M650.4,1095.4l47.9,0l0,-0.8l-47.9,0l0,0.8Z" class="g4_1" />
<path fill-rule="evenodd" d="M698.3,1095.4l0.7,0l0,-0.8l-0.7,0l0,0.8Z" class="g4_1" />
<path fill-rule="evenodd" d="M699,1095.4l47.9,0l0,-0.8l-47.9,0l0,0.8Z" class="g4_1" />
<path fill-rule="evenodd" d="M746.9,1095.4l0.7,0l0,-0.8l-0.7,0l0,0.8Z" class="g4_1" />
<path fill-rule="evenodd" d="M747.6,1095.4l48.1,0l0,-0.8l-48.1,0l0,0.8Z" class="g4_1" />
<path fill-rule="evenodd" d="M795.7,1095.4l0.7,0l0,-0.8l-0.7,0l0,0.8Z" class="g4_1" />
<path fill-rule="evenodd" d="M796.4,1095.4l47.9,0l0,-0.8l-47.9,0l0,0.8Z" class="g4_1" />
<path fill-rule="evenodd" d="M844.2,1095.4l0.8,0l0,-0.8l-0.8,0l0,0.8Z" class="g4_1" />
<path fill-rule="evenodd" d="M845,1095.4l48.8,0l0,-0.8l-48.8,0l0,0.8Z" class="g4_1" />
<path fill-rule="evenodd" d="M893.8,1095.4l0.7,0l0,-0.8l-0.7,0l0,0.8Z" class="g4_1" />
<path fill-rule="evenodd" d="M39.6,1110.4l0.7,0l0,-15l-0.7,0l0,15Z" class="g4_1" />
<path fill-rule="evenodd" d="M116.6,1110.4l0.8,0l0,-15l-0.8,0l0,15Z" class="g3_1" />
<path fill-rule="evenodd" d="M233.6,1110.4l0.7,0l0,-15l-0.7,0l0,15Z" class="g3_1" />
<path fill-rule="evenodd" d="M267.9,1110.4l0.8,0l0,-15l-0.8,0l0,15Z" class="g3_1" />
<path fill-rule="evenodd" d="M384.9,1110.4l0.7,0l0,-15l-0.7,0l0,15Z" class="g3_1" />
<path fill-rule="evenodd" d="M521.5,1110.4l0.7,0l0,-15l-0.7,0l0,15Z" class="g4_1" />
<path fill-rule="evenodd" d="M541.1,1110.4l0.8,0l0,-15l-0.8,0l0,15Z" class="g3_1" />
<path fill-rule="evenodd" d="M893.8,1110.4l0.7,0l0,-15l-0.7,0l0,15Z" class="g3_1" />
<path fill-rule="evenodd" d="M39.6,1111.1l0.7,0l0,-0.7l-0.7,0l0,0.7Z" class="g4_1" />
<path fill-rule="evenodd" d="M116.6,1111.1l0.8,0l0,-0.7l-0.8,0l0,0.7Z" class="g3_1" />
<path fill-rule="evenodd" d="M233.6,1111.1l0.7,0l0,-0.7l-0.7,0l0,0.7Z" class="g3_1" />
<path fill-rule="evenodd" d="M267.9,1111.1l0.8,0l0,-0.7l-0.8,0l0,0.7Z" class="g3_1" />
<path fill-rule="evenodd" d="M384.9,1111.1l0.7,0l0,-0.7l-0.7,0l0,0.7Z" class="g3_1" />
<path fill-rule="evenodd" d="M521.5,1111.1l0.7,0l0,-0.7l-0.7,0l0,0.7Z" class="g4_1" />
<path fill-rule="evenodd" d="M522.2,1111.1l18.9,0l0,-0.7l-18.9,0l0,0.7Z" class="g3_1" />
<path fill-rule="evenodd" d="M541.1,1111.1l0.8,0l0,-0.7l-0.8,0l0,0.7Z" class="g3_1" />
<path fill-rule="evenodd" d="M541.9,1111.1l351.9,0l0,-0.7l-351.9,0l0,0.7Z" class="g3_1" />
<path fill-rule="evenodd" d="M893.8,1111.1l0.7,0l0,-0.7l-0.7,0l0,0.7Z" class="g3_1" />
<path fill-rule="evenodd" d="M39.6,1130.4l0.7,0l0,-19.3l-0.7,0l0,19.3Z" class="g4_1" />
<path fill-rule="evenodd" d="M39.6,1131.1l0.7,0l0,-0.7l-0.7,0l0,0.7Z" class="g4_1" />
<path fill-rule="evenodd" d="M39.6,1131.1l0.7,0l0,-0.7l-0.7,0l0,0.7Z" class="g4_1" />
<path fill-rule="evenodd" d="M40.3,1131.1l76.3,0l0,-0.7l-76.3,0l0,0.7Z" class="g4_1" />
<path fill-rule="evenodd" d="M116.6,1130.4l0.8,0l0,-19.3l-0.8,0l0,19.3Z" class="g3_1" />
<path fill-rule="evenodd" d="M116.6,1131.1l0.8,0l0,-0.7l-0.8,0l0,0.7Z" class="g4_1" />
<path fill-rule="evenodd" d="M117.4,1131.1l116.2,0l0,-0.7l-116.2,0l0,0.7Z" class="g4_1" />
<path fill-rule="evenodd" d="M233.6,1130.4l0.7,0l0,-19.3l-0.7,0l0,19.3Z" class="g3_1" />
<path fill-rule="evenodd" d="M233.6,1131.1l0.7,0l0,-0.7l-0.7,0l0,0.7Z" class="g4_1" />
<path fill-rule="evenodd" d="M234.3,1131.1l33.6,0l0,-0.7l-33.6,0l0,0.7Z" class="g4_1" />
<path fill-rule="evenodd" d="M267.9,1130.4l0.8,0l0,-19.3l-0.8,0l0,19.3Z" class="g3_1" />
<path fill-rule="evenodd" d="M267.9,1131.1l0.8,0l0,-0.7l-0.8,0l0,0.7Z" class="g4_1" />
<path fill-rule="evenodd" d="M268.7,1131.1l116.2,0l0,-0.7l-116.2,0l0,0.7Z" class="g4_1" />
<path fill-rule="evenodd" d="M384.9,1130.4l0.7,0l0,-19.3l-0.7,0l0,19.3Z" class="g3_1" />
<path fill-rule="evenodd" d="M384.9,1131.1l0.7,0l0,-0.7l-0.7,0l0,0.7Z" class="g4_1" />
<path fill-rule="evenodd" d="M385.6,1131.1l135.9,0l0,-0.7l-135.9,0l0,0.7Z" class="g4_1" />
<path fill-rule="evenodd" d="M521.5,1130.4l0.7,0l0,-19.3l-0.7,0l0,19.3Z" class="g4_1" />
<path fill-rule="evenodd" d="M521.5,1131.1l0.7,0l0,-0.7l-0.7,0l0,0.7Z" class="g4_1" />
<path fill-rule="evenodd" d="M521.5,1131.1l0.7,0l0,-0.7l-0.7,0l0,0.7Z" class="g4_1" />
<path fill-rule="evenodd" d="M522.2,1131.1l18.9,0l0,-0.7l-18.9,0l0,0.7Z" class="g3_1" />
<path fill-rule="evenodd" d="M541.1,1130.4l0.8,0l0,-19.3l-0.8,0l0,19.3Z" class="g3_1" />
<path fill-rule="evenodd" d="M541.1,1131.1l0.8,0l0,-0.7l-0.8,0l0,0.7Z" class="g3_1" />
<path fill-rule="evenodd" d="M541.9,1131.1l351.9,0l0,-0.7l-351.9,0l0,0.7Z" class="g3_1" />
<path fill-rule="evenodd" d="M893.8,1130.4l0.7,0l0,-19.3l-0.7,0l0,19.3Z" class="g3_1" />
<path fill-rule="evenodd" d="M893.8,1131.1l0.7,0l0,-0.7l-0.7,0l0,0.7Z" class="g3_1" />
<path fill-rule="evenodd" d="M893.8,1131.1l0.7,0l0,-0.7l-0.7,0l0,0.7Z" class="g3_1" />
<image preserveAspectRatio="none" x="48" y="70" width="419" height="74" xlink:href="img/2.png" />
</svg>